<svg aria-hidden="true" style="position: absolute; width: 0; height: 0; overflow: hidden;" version="1.1" xmlns="http://www.w3.org/2000/svg" xmlns:xlink="http://www.w3.org/1999/xlink">
  <defs>
    <symbol id="reddit" viewBox="0 0 38 32">
      <path d="M24.532 20.379c-1.343 0-2.427-1.084-2.427-2.426 0-1.344 1.084-2.426 2.427-2.426 1.341 0 2.426 1.083 2.426 2.426 0 1.342-1.084 2.426-2.426 2.426zM25.203 24.868c-0.074 0.113-1.91 2.79-6.334 2.79s-6.26-2.677-6.334-2.79c-0.251-0.371-0.153-0.874 0.219-1.116 0.373-0.251 0.874-0.146 1.124 0.217 0.057 0.089 1.472 2.072 4.991 2.072 3.517 0 4.934-1.99 4.989-2.072 0.251-0.364 0.754-0.461 1.126-0.21 0.365 0.243 0.46 0.744 0.219 1.108zM10.781 17.953c0-1.344 1.084-2.426 2.426-2.426 1.343 0 2.427 1.083 2.427 2.426 0 1.342-1.084 2.426-2.427 2.426-1.341 0-2.426-1.084-2.426-2.426zM36.665 14.717c0-2.233-1.811-4.045-4.045-4.045-1.075 0-2.047 0.421-2.774 1.101-2.427-1.901-5.695-3.163-9.343-3.462l2.072-6.204 5.216 2.614c-0.009 0.097-0.023 0.186-0.023 0.29 0 1.344 1.084 2.428 2.425 2.428 1.336 0 2.427-1.084 2.427-2.428 0-1.342-1.092-2.426-2.427-2.426-0.655 0-1.244 0.26-1.68 0.68l-5.268-2.629c-0.395-0.202-0.865-0.227-1.286-0.056-0.42 0.169-0.752 0.509-0.898 0.945l-2.241 6.722c-4.287 0.009-8.153 1.359-10.927 3.527-0.731-0.68-1.7-1.101-2.776-1.101-2.233 0-4.045 1.812-4.045 4.045 0 1.706 1.059 3.171 2.557 3.761-0.090 0.494-0.129 0.986-0.129 1.496 0 6.479 6.882 11.729 15.368 11.729 8.485 0 15.369-5.25 15.369-11.729 0-0.51-0.039-1.003-0.129-1.496 1.497-0.59 2.557-2.055 2.557-3.761z"></path>
    </symbol>
    <symbol id="instagram" viewBox="0 0 31 32">
      <path d="M27.895 23.113c0 2.871-2.329 5.201-5.199 5.201h-14.56c-2.87 0-5.201-2.329-5.201-5.201v-14.559c0-2.871 2.331-5.201 5.201-5.201h14.56c2.87 0 5.199 2.329 5.199 5.201v14.559zM23.216 0.754h-15.6c-4.019 0-7.28 3.261-7.28 7.28v15.599c0 4.019 3.261 7.28 7.28 7.28h15.6c4.019 0 7.279-3.261 7.279-7.28v-15.599c0-4.019-3.259-7.28-7.279-7.28z"></path>
      <path d="M15.428 21.035c-2.864 0-5.201-2.335-5.201-5.201 0-2.864 2.336-5.199 5.201-5.199 2.866 0 5.201 2.335 5.201 5.199 0 2.866-2.335 5.201-5.201 5.201zM15.428 8.035c-4.306 0-7.798 3.495-7.798 7.8s3.492 7.8 7.798 7.8c4.305 0 7.8-3.495 7.8-7.8s-3.495-7.8-7.8-7.8z"></path>
      <path d="M23.749 9.077c-0.86 0-1.559-0.7-1.559-1.56s0.699-1.56 1.559-1.56c0.86 0 1.56 0.7 1.56 1.56s-0.7 1.56-1.56 1.56z"></path>
    </symbol>
    <symbol id="tiktok" viewBox="0 0 27 32">
      <path d="M18.988 23.19v-13.674c0 0 1.542 2.57 7.116 2.727 0.297 0.010 0.542-0.235 0.542-0.532v-3.866c0-0.288-0.229-0.515-0.517-0.532-4.323-0.245-6.376-3.559-6.578-6.6-0.019-0.282-0.265-0.496-0.547-0.496h-4.407c-0.294 0-0.532 0.238-0.532 0.532v21.738c0 2.361-1.805 4.416-4.163 4.527-2.696 0.128-4.888-2.186-4.555-4.92 0.235-1.932 1.786-3.514 3.714-3.783 0.383-0.053 0.758-0.057 1.12-0.017 0.32 0.036 0.603-0.203 0.603-0.525v-3.874c0-0.276-0.21-0.514-0.485-0.531-0.553-0.036-1.12-0.024-1.695 0.042-4.252 0.482-7.683 3.923-8.154 8.175-0.622 5.612 3.755 10.361 9.24 10.361 5.136 0 9.299-4.163 9.299-9.299z"></path>
    </symbol>
    <symbol id="twitter" viewBox="0 0 38 32">
      <path d="M7.796 3.686h4.394l17.751 24.796h-4.394l-17.751-24.796zM23.198 13.328l12.135-12.979h-4.609l-9.525 10.188-7.294-10.188h-12.604l12.76 17.822-12.76 13.648h4.609l10.15-10.857 7.772 10.857h12.604l-13.238-18.491z"></path>
    </symbol>
    <symbol id="facebook" viewBox="0 0 18 32">
      <path d="M17.598 14.223l-0.396 3.182c-0.067 0.532-0.517 0.931-1.051 0.931h-5.155v13.308c-0.544 0.049-1.095 0.074-1.652 0.074-1.245 0-2.461-0.125-3.636-0.361v-13.021h-3.965c-0.364 0-0.661-0.298-0.661-0.664v-3.982c0-0.365 0.297-0.664 0.661-0.664h3.965v-5.974c0-3.665 2.959-6.636 6.61-6.636h4.626c0.364 0 0.661 0.298 0.661 0.664v3.982c0 0.365-0.297 0.664-0.661 0.664h-3.305c-1.459 0-2.643 1.189-2.643 2.656v4.645h5.551c0.637 0 1.13 0.561 1.051 1.195z"></path>
    </symbol>
    <symbol id="close" viewBox="0 0 32 32">
      <path d="M7.294 7.293c0.188-0.187 0.442-0.292 0.707-0.292s0.519 0.105 0.707 0.292l16 16c0.098 0.092 0.177 0.202 0.232 0.325s0.084 0.255 0.086 0.389c0.002 0.134-0.022 0.268-0.073 0.392s-0.125 0.238-0.22 0.333-0.208 0.17-0.333 0.22c-0.125 0.050-0.258 0.075-0.392 0.073s-0.267-0.032-0.389-0.086c-0.123-0.055-0.233-0.134-0.325-0.232l-16-16c-0.187-0.187-0.292-0.442-0.292-0.707s0.105-0.519 0.292-0.707z"></path>
      <path d="M24.707 7.293c0.187 0.188 0.292 0.442 0.292 0.707s-0.105 0.519-0.292 0.707l-16 16c-0.19 0.177-0.44 0.273-0.699 0.268s-0.506-0.11-0.689-0.293-0.288-0.43-0.293-0.689c-0.005-0.259 0.092-0.51 0.268-0.699l16-16c0.188-0.187 0.442-0.292 0.707-0.292s0.519 0.105 0.707 0.292z"></path>
    </symbol>
    <symbol id="burger" viewBox="0 0 32 32">
      <path d="M5.333 8c0-0.354 0.14-0.693 0.391-0.943s0.589-0.391 0.943-0.391h18.667c0.354 0 0.693 0.14 0.943 0.391s0.391 0.589 0.391 0.943-0.14 0.693-0.391 0.943c-0.25 0.25-0.589 0.391-0.943 0.391h-18.667c-0.354 0-0.693-0.14-0.943-0.391s-0.391-0.589-0.391-0.943zM5.333 16c0-0.354 0.14-0.693 0.391-0.943s0.589-0.391 0.943-0.391h18.667c0.354 0 0.693 0.14 0.943 0.391s0.391 0.589 0.391 0.943-0.14 0.693-0.391 0.943c-0.25 0.25-0.589 0.391-0.943 0.391h-18.667c-0.354 0-0.693-0.14-0.943-0.391s-0.391-0.589-0.391-0.943zM6.666 22.667c-0.354 0-0.693 0.14-0.943 0.391s-0.391 0.589-0.391 0.943c0 0.354 0.14 0.693 0.391 0.943s0.589 0.391 0.943 0.391h18.667c0.354 0 0.693-0.14 0.943-0.391s0.391-0.589 0.391-0.943-0.14-0.693-0.391-0.943c-0.25-0.25-0.589-0.391-0.943-0.391h-18.667z"></path>
    </symbol>
    <symbol id="bat" viewBox="0 0 83 32">
      <path d="M72.733 11.269c3.279 0.582 10.059 6.21 10.059 6.21s-2.196-3.39-5.877-6.228c-3.681-2.833-12.176-7.575-16.202-8.312-4.028-0.738-1.919-0.241-2.768-0.962-0.852-0.722-0.978-1.427-0.978-1.427s0 0-0.153 0.756c-0.153 0.754 0.976 1.425 0.988 2.297 0.012 0.87-1.841 10.652-2.439 11.343-0.599 0.687-5.876 4.243-6.296 4.319-0.419 0.073-2.415-0.589-2.705-1.408-0.291-0.82-1.437-0.764-1.437-0.764l0.666-2.736c0 0 1.971-1.078 2.494-3.788 0.525-2.711 0.642-4.479 0.642-4.479s-1.615 1.452-2.252 2.729c-0.637 1.277-2.089 2.844-2.089 2.844l-1.375-0.033 0.003-0.061-1.355 0.030-0.892-0.018 0.001 0.040-1.423 0.033c0 0-1.474-1.567-2.124-2.843-0.649-1.28-2.292-2.729-2.292-2.729s0.123 1.768 0.668 4.479c0.541 2.711 2.539 3.788 2.539 3.788l0.684 2.738c0 0-1.159-0.058-1.451 0.763s-2.308 1.487-2.734 1.412c-0.424-0.074-5.782-3.63-6.391-4.318-0.61-0.689-2.523-10.475-2.514-11.346 0.007-0.871 1.15-1.543 0.991-2.298-0.157-0.755-0.157-0.755-0.157-0.755s-0.125 0.705-0.984 1.427c-0.859 0.722 1.276 0.223-2.802 0.964-4.075 0.739-12.66 5.489-16.378 8.328-3.717 2.837-5.928 6.232-5.928 6.232s6.845-5.636 10.163-6.218c3.315-0.582 5.108 4.965 3.974 7.24-1.136 2.272-1.544 2.928-1.544 2.928s2.993-3.691 6.601-2.624c3.608 1.069 4.090 7.405 4.215 6.699 0.125-0.707 1.535-4.53 4.678-4.125 3.14 0.405 4.648 5.904 4.648 5.904s1.337-2.25 2.469-3.203c0.857-0.722 1.458-1.634 2.7-0.399 1.238 1.232 1.715 1.029 2.57 2.769l0.060 4.995c0 0 0.401-1.284 0.908-2.673 0.519 1.387 0.927 2.67 0.927 2.67l0.042-5.040c0.805-1.67 0.67-1.365 1.874-2.586 1.222-1.233 1.602-0.72 2.987-0.239 1.384 0.48 2.406 2.893 2.406 2.893s1.821-4.685 4.923-5.093c3.099-0.405 4.505 3.417 4.631 4.12 0.126 0.706 0.579-5.628 4.138-6.698 3.561-1.071 6.528 2.618 6.528 2.618s-0.405-0.654-1.534-2.927c-1.127-2.272 0.621-7.818 3.896-7.239z"></path>
    </symbol>
    <symbol id="scull" viewBox="0 0 177 32">
      <path d="M94.003 18.429c-1.374 0-2.487-1.13-2.487-2.524 0-1.395 1.113-2.526 2.487-2.526s2.488 1.13 2.488 2.526c0 1.394-1.113 2.524-2.488 2.524zM91.864 24.708c-0.263 0.644-1.063 0.849-1.594 0.408l-1.042-1.784-1.084 1.991c-0.54 0.413-1.333 0.194-1.575-0.447-0.38-1.014-0.292-2.174 0.295-3.138l1.521-2.5c0.385-0.635 1.287-0.654 1.699-0.037l1.439 2.153c0.661 0.988 0.789 2.248 0.341 3.354zM83.521 20.232c-2.453 0-4.441-2.019-4.441-4.508 0-2.492 1.988-4.51 4.441-4.51s4.441 2.018 4.441 4.51c0 2.489-1.988 4.508-4.441 4.508zM88.108 0.038c-6.974 0.196-12.777 5.83-13.257 12.895-0.285 4.183 1.259 8.005 3.899 10.727 1.825 1.882 2.818 4.436 2.818 7.078v0.676h1.954v-2.734c0-0.328 0.22-0.631 0.539-0.685 0.407-0.067 0.757 0.25 0.757 0.649v2.77h1.943v-2.734c0-0.328 0.221-0.631 0.54-0.685 0.406-0.065 0.757 0.25 0.757 0.649v2.77h1.943v-2.734c0-0.328 0.221-0.631 0.541-0.685 0.405-0.067 0.756 0.25 0.756 0.649v2.77h1.943v-2.734c0-0.328 0.22-0.631 0.539-0.685 0.407-0.067 0.757 0.25 0.757 0.649v2.77h1.423v-1.248c0-2.507 0.874-4.959 2.558-6.796 2.27-2.479 3.66-5.799 3.66-9.45 0-7.801-6.337-14.099-14.068-13.882z"></path>
      <path d="M63.184 20.288c0 0-38.204 0.401-51.603 0.401-3.152 0-9.061-8.798-11.029-5.599-1.97 3.199 1.968 6.797 1.968 6.797s-4.648 6.169-0.788 7.998c5.909 2.799 4.727-2.398 7.879-3.599 3.152-1.2 46.482-1.6 50.817-1.6 2.466 0 1.334 1.122 2.466 2.046 1.518 1.241 8.563 6.825 8.563 1.553 0-3.599-2.758-3.999-2.758-5.197 0-1.201 3.151-2.399 0.788-5.199s-3.151-0.801-6.303 2.398z"></path>
      <path d="M113.964 20.288c0 0 38.036 0.401 51.377 0.401 3.137 0 9.020-8.798 10.98-5.599 1.961 3.199-1.96 6.797-1.96 6.797s4.628 6.169 0.784 7.998c-5.883 2.799-4.707-2.398-7.844-3.599-3.137-1.2-46.276-1.6-50.592-1.6-2.455 0-1.328 1.122-2.455 2.046-1.512 1.241-8.524 6.825-8.524 1.553 0-3.599 2.745-3.999 2.745-5.197 0-1.201-3.139-2.399-0.785-5.199s3.137-0.801 6.275 2.398z"></path>
    </symbol>
    <symbol id="icon-next"  viewBox="0 0 16 32">
      <path fill="none" stroke="#bea0c5" style="stroke: var(--color1, #bea0c5)" stroke-linejoin="round" stroke-linecap="round" stroke-miterlimit="4" stroke-width="3" d="M2 2l12 14-12 14"></path>
    </symbol>
    <symbol id="icon-prev"  viewBox="0 0 16 32">
      <path fill="none" stroke="#bea0c5" style="stroke: var(--color1, #bea0c5)" stroke-linejoin="round" stroke-linecap="round" stroke-miterlimit="4" stroke-width="3" d="M14 2l-12 14 12 14"></path>
    </symbol>
    <symbol id="icon-cookie-decline" viewBox="0 0 150 32">
      <path fill="#2c003e" style="fill: var(--color2, #2c003e)" d="M18.787 0.015c1.859-0.039 4.295 0.003 6.146 0.060 0.58 0.018 0.286 0.097 0.687 0.112 0.783 0.031 1.513-0.008 2.287 0.029 0.257 0.013-0.063 0.137 0.206 0.148 1.474 0.055 2.869 0.023 4.362 0.050 7.356 0.131 14.587 0.178 22.033 0.235 2.455 0.019 5.44 0.132 7.976 0.083 0.296-0.006 0.12-0.116 0.176-0.125 0.883-0.138 0.59 0.083 1.166 0.112 2.289 0.116 4.835 0.126 7.038 0.084 0.937-0.018-0.002-0.236 0.941-0.114 0.066 0.008-0.172 0.125 0.085 0.137 0.583 0.028 1.689 0.007 2.141 0.016 0.87 0.018 1.015 0.017 1.839 0.019 1.125 0.003 2.465 0.061 3.673 0.034 0.257-0.006-0.083-0.125 0.327-0.146s1.5-0.010 1.868 0.018c0.367 0.028 0.211 0.122 0.275 0.144 0.535 0.182 1.794-0.070 1.956-0.076 2.954-0.106 5.488 0.037 8.261 0.037 2.105-0.001 4.357-0.048 6.361-0.041 2.387 0.008 4.409 0.073 6.728 0.062 0.245-0.001-0.042-0.141 0.257-0.143 3.175-0.016 6.329-0.001 9.49 0.094 0.317 0.010-0.092 0.133 0.225 0.15 1.939 0.101 5.008 0.345 6.16-0.192 1.314 0.021 2.908 0.043 4.084 0.151 0.758 0.070 0.022 0.204 0.953 0.147 0.21-0.013-0.063-0.13 0.252-0.141 1.325-0.043 2.774-0.005 4.086-0.066 0.266-0.013 0.194-0.118 0.269-0.137 0.635-0.154 1.692 0.1 1.923 0.119 0.604 0.047 1.152 0.072 1.678 0.084 1.036 0.026 1.991 0.091 3.079 0.311 0.386 0.082-0.042-0.154 0.333-0.077 1.938 0.407 3.853 1.271 5.401 2.427 0.344 0.258-0.048 0.13 0.11 0.258 0.687 0.573 0.985 0.526 1.598 1.145 0.126 0.132-0.019 0.137-0.003 0.168 0.252 0.481 0.735 0.631 0.832 0.728 1.194 1.214 1.592 2.272 2.355 3.687 0.089 0.173 0.015-0.281 0.258 0.212 0.967 1.992 1.482 4.292 1.446 6.556-0.019 1.482-0.263 2.943-0.702 4.298-0.177 0.53-0.156 0.119-0.177 0.15-0.347 0.485-0.24 0.907-0.298 1.084-0.459 1.375-1.325 2.417-1.645 3.384-2.884 3.981-7.69 6.552-12.587 6.417-1.162-0.025-2.324-0.061-3.484-0.114-0.075-0.003 0.059-0.128-0.090-0.134-1.794-0.070-1.45 0.124-2.637 0.361-0.299 0.059-1.209-0.227-1.29-0.248-0.293-0.077 0.011-0.263-0.087-0.278-0.813-0.118-0.68 0.496-1.776 0.496-0.034-0.001 0.11-0.114 0.018-0.125-0.286-0.035-0.569 0.010-0.849-0.029-0.64-0.090-0.868-0.388-1.846-0.215-0.124 0.023 0.066 0.371-0.914 0.354-0.39-0.007-2.117-0.001-2.601-0.023s-0.152-0.135-0.186-0.14c-1.302-0.148-0.809-0.21-1.462-0.429s-0.471 0.303-0.737 0.361c-0.266 0.058-1.221-0.064-1.456-0.107s0.057-0.114-0.151-0.138c-1.383-0.157-0.607 0.259-1.063 0.342-1.075 0.196-1.911-0.191-2.895-0.229-0.266-0.010-0.048 0.078-0.286 0.086-0.938 0.031-1.503-0.089-2.571 0.021-0.174 0.018-1.037 0.251-1.596 0.080-0.079-0.025 0.146-0.121-0.254-0.143-0.598-0.032-1.674-0.053-2.317-0.021-0.474 0.024 0.070 0.183-0.528 0.133-0.265-0.022 0.227-0.115-0.272-0.149-0.496-0.034-1.764-0.030-2.246-0.026s-0.218 0.124-0.257 0.132c-0.235 0.046-1.159 0.105-1.241 0.104-4.118 0.015-7.917-0.188-11.926-0.121-0.315 0.005-0.106 0.132-0.153 0.134-1.078 0.053-0.228-0.285-0.981-0.398 0.109 0.258-0.336 0.211-1.094 0.239-0.366 0.014-0.167 0.114-0.2 0.124-0.543 0.152-0.92-0.044-1.017-0.084-0.359-0.147-0.75 0.027-0.994-0.072s0.318-0.243-0.41-0.241c-0.204 0.092 0.336 0.334-0.217 0.373-2.084 0.148-5.977-0.041-7.653-0.061-1.673-0.020-2.213-0.003-3.188-0.036-1.761-0.060-1.116 0.119-2.209 0.201-1.097 0.082-0.564-0.358-0.721-0.453-0.155-0.095-0.324 0.003-0.516-0.049s0.223-0.116-0.228-0.136c-0.451-0.020-1.686 0.149-1.846 0.248-0.338 0.21 0.218 0.43-0.977 0.352-0.069-0.005 0.154-0.12-0.109-0.132-2.090-0.089-4.26-0.095-6.347-0.173-0.287-0.011-0.030-0.14-0.197-0.148-1.74-0.082-1.118 0.135-2.071 0.376 0.214-0.321-0.313-0.517-1.633-0.519-0.794-0.001-0.657 0.139-1.17 0.238-0.154 0.030-0.716-0.066-0.817-0.001-0.336 0.216 0.193 0.457-1.168 0.361-0.060-0.005 0.13-0.123-0.076-0.13-1.334-0.047-1.493 0.179-2.935 0.206-1.13 0.021-3.14-0.116-4.427-0.139 0.027-0.361-1.188-0.278-1.681-0.029-0.835-0.010-1.737 0.004-2.544-0.030-0.278-0.012-0.095-0.116-0.13-0.128-0.537-0.177-0.9 0.065-1.080 0.075-1.954 0.092-3.545-0.091-5.41 0.088-0.066 0.006-0.173 0.257-0.672 0.074-0.032-0.013 0.584-0.127-0.294-0.136s-2.531-0.143-3.749-0.027c-0.295 0.028-1.040 0.232-1.638 0.072-0.080-0.022 0.008-0.093-0.108-0.134-0.372-0.128-0.575 0.126-1.012-0.089s-1.346-0.377-2.575-0.228c-0.039 0.004-0.33 0.205-0.716 0.202-0.617-0.005-1.492-0.047-2.136-0.046-0.308 0.001-0.111 0.125-0.164 0.128-1.759 0.059-3.087-0.012-4.805-0.064-0.311-0.009-0.627-0.027-0.965-0.056-0.402-0.025-1.604 0.007-2.35-0.312-0.8-0.363 0.178-0.67-1.676-1.137-0.719-0.207-2.021 0.086-3.034-1.043-2.39-1.45-3.997-3.577-5.329-6.005-0.060-0.108-0.425-0.382-0.536-0.662-0.164-0.413-0.15-0.678-0.245-0.977-0.388-1.258-0.703-2.435-0.781-3.711-0.023-0.486 0.086-0.319 0.081-0.893 0-0.051-0.001-0.101-0.002-0.149-0.013-0.495-0.112-0.885 0.019-1.586 0.115-0.584 0.48-1.112 0.689-1.843-0.26-0.091-0.149-0.613 0.096-1.536 0.048-0.177-0.109-0.025-0.091-0.111 0.074-0.353 0.271-0.628 0.356-0.959 0.021-0.081-0.064-0.123-0.051-0.191 0.104-0.591 0.757-1.328 0.874-1.441 0.439-0.457 0.498-0.76 0.821-1.115 0.324-0.346-0.038 0.259 0.316-0.159 0.732-0.865 1.736-1.916 2.643-2.619 0.361-0.281 0.038-0.189 0.088-0.232 0.738-0.614 1.63-0.99 1.98-1.46 0.89 0.282 0.469-0.353 1.804-0.747 0.107-0.028 0.336 0.213-0.025 0.401-0.358 0.187-0.961 0.346-1.426 0.671-0.116 0.073-0.626 0.697-0.697 0.767-0.596 0.534-0.941 0.235-0.994 0.237-0.567 0.056-1.103 0.902-1.26 1.081-0.762 0.817-1.433 1.487-1.931 2.276-0.32 0.519-0.097 0.737-0.353 1.123-0.809 1.296-1.432 1.666-1.557 3.182-0.012 0.326 0.368 0.108-0.15 1.12-0.035 0.059-0.438 0.838-0.343 1.34 0.011 0.062 0.107 0.072 0.106 0.152-0.007 0.531-0.108 0.878-0.082 1.457 0.003 0.062 0.007 0.126 0.011 0.191 0.034 0.539 0.109 1.144 0.153 1.729 0.026 0.392-0.059 0.927-0.062 1.124-0.016 0.564 0.341 1.072 0.297 1.436-0.039 0.376-0.482-0.201-0.277 0.704 0.247-0.052 0.515-0.068 0.769-0.107 0.662 1.8 1.628 3.486 2.985 4.879 0.169 0.171 0.093-0.098 0.277 0.080 0.777 0.741 1.457 1.413 2.425 1.983 0.751 0.439 1.661 0.739 2.505 1.022 0.404 0.475 1.735 0.782 2.695 0.945 0.337 0.061 0.303 0.132 0.544 0.187 0.914 0.187 0.503-0.113 0.756-0.131 0.418-0.039 0.678 0.009 0.927 0.088 0.42 0.126 0.779 0.339 1.613 0.331 0.072-0.001 0.951-0.306 1.072-0.325 0.769-0.124 0.127 0.106 0.609 0.129 0.879 0.041 1.489 0.114 2.52 0.025 0.301-0.026 1.022-0.217 1.605-0.070 0.077 0.019 0.034 0.12 0.096 0.126 1.119 0.098 1.148-0.219 1.788-0.326s1.627 0.111 1.828 0.175c0.526 0.163-0.403 0.070-0.431 0.086-0.334 0.191 0.386 0.158 0.936 0.174 0.080 0.311 0.849 0.292 0.571 0.015-0.032-0.030-0.46-0.001-0.571-0.015 0.483-0.305 1.329-0.344 2.263-0.059 0.437 0.134 0.024 0.289 1.352 0.232 0.603-0.026 0.37-0.24 0.902-0.298 1.216-0.133 2.795 0.067 4.049 0.035 0.455-0.011 0.012-0.129 0.323-0.14 0.825-0.032 1.553 0.056 2.381 0.011 0.075-0.004-0.108-0.127 0.149-0.128 1.953-0.014 3.654 0.064 5.693 0.067 0.985 0.001 2.747-0.067 3.768-0.053 1.769 0.023 3.945 0.201 5.457 0.158 0.986-0.028 0.77-0.15 1.192-0.234 0.815-0.162 2.258 0.128 2.452 0.173 0.006 0.002-0.842 0.030-0.39 0.093 0.263 0.131 0.38-0.093 0.39-0.093 0.128 0.029 1.822 0.057 2.158 0.033 0.183-0.013 0.081-0.129 0.176-0.134 2.266-0.104 4.535-0.134 6.833-0.079 0.040 0.002-0.020 0.132 0.075 0.136 1.33 0.058 2.182-0.101 3.279-0.196s1.967-0.063 2.616 0.16c0.828-0.028 2.015 0.071 2.698 0.13s0.779-0.193 0.839-0.198c1.875-0.16 2.96-0.015 4.906 0.007 0.925 0.011 2.759-0.026 3.761-0.053 0.792-0.022 1.268 0.037 1.997-0.001 0.099-0.005-0.001-0.118 0.030-0.122 0.813-0.135 0.423 0.141 0.591 0.19 0.609 0.179 0.985 0.274 2.028 0.19 0.24-0.019 0.941-0.416 1.379-0.439 0.57-0.029 0.355 0.113 0.951 0.078 0.051-0.003 0.041-0.091 0.409-0.087 1.709 0.017 3.574 0.068 5.349 0.059 0.243-0.001-0.068-0.14 0.283-0.144 1.645-0.017 3.448-0.011 5.050 0.054 0.394 0.016 0.147 0.114 0.233 0.143 0.526 0.175 1.271-0.079 1.395-0.084 2.934-0.122 5.18 0.108 8.17-0.002 0.163-0.006 1.416-0.279 1.975-0.045 0.038 0.016 0.591 0.255 1.081 0.091 0.030-0.010-0.315-0.133 0.287-0.121s1.57-0.070 2.396 0.066c0.261 0.043 0.88 0.281 1.661 0.091 0.051-0.013 1.256-0.443 1.686-0.147 0.070 0.049-0.003 0.363 0.929 0.202 0.178-0.031-0.145-0.101 0.324-0.145 0.719-0.067 1.671 0.017 2.555-0.123 0.154-0.025 0.81-0.238 1.336-0.076 0.083 0.025-0.074 0.13 0.204 0.142 1.321 0.056 2.704-0.014 4.045 0.059 0.476 0.025 0.233 0.195 0.728 0.24s1.494 0.089 2.012 0.012c0.519-0.077-0.048-0.348 0.729-0.369 0.1-0.003 0.199-0.005 0.299-0.008 2.972-0.069 5.939-0.921 8.337-2.75 0.361-0.282 0.010-0.115 0.521-0.549 2.004-1.539 4.036-5.388 4.515-7.506 0.46-1.688 0.222 0.508 0.5-0.814 0.125-0.652-0.16-1.375-0.167-1.525-0.005-0.135-0.010-0.266-0.016-0.394-0.065-1.306-0.088-2.3-0.432-3.496-0.081-0.269-0.132 0.029-0.201-0.198-0.24-0.771-0.494-1.586-0.845-2.277-0.16-0.309-0.217-0.207-0.36-0.49-0.351-0.674-0.687-1.258-1.073-1.906-0.036-0.060 0.345 0.233-0.004-0.222-0.568-0.73-1.323-1.632-2.225-2.222-0.269-0.173-0.403-0.008-0.869-0.518-0.1-0.102 0.203-0.239-0.595-0.462-0.136-0.051-1.424-0.402-1.947-0.81-0.135-0.113-0.47-0.477-0.848-0.563-0.051-0.010 0.109 0.166-0.194 0.081-1.066-0.294-2.209-0.515-3.346-0.538-0.301-0.004 0.139 0.139-0.307 0.132-0.143-0.001-0.291-0.001-0.443 0.001-1.255 0.015-2.708-0.013-3.876-0.047-0.487-0.014-0.15-0.117-0.186-0.128-0.571-0.181-0.908 0.063-1.097 0.078-1.177 0.085-2.074-0.029-3.159 0.001-0.3 0.008-0.087 0.125-0.147 0.135-0.618 0.102-0.158-0.108-0.549-0.131-1.097-0.065-2.319-0.056-3.428-0.041-0.407 0.006 0.051 0.141-0.315 0.144-2.163 0.023-4.412 0.010-6.524-0.064-0.397-0.014-0.147-0.118-0.23-0.142-0.572-0.166-1.408 0.061-1.601 0.082-0.875 0.099-1.215 0.007-1.988 0.024-3.778 0.086-8.441 0.025-12.007-0.013-4.647-0.048-8.252-0.147-12.682-0.122-0.281 0.002 0.002 0.14-0.24 0.143-3.135 0.033-6.22-0.021-9.36 0.019-0.258 0.003 0.113 0.134-0.3 0.144-0.848 0.020-1.923 0.013-2.781-0.029-0.418-0.020 0.143-0.133-0.278-0.151-0.981-0.042-2.032-0.052-3.039-0.031-0.429 0.009 0.218 0.143-0.339 0.145-3.795 0.013-7.522 0.036-11.358-0.137-0.263-0.012-0.494-0.285-1.053-0.232-0.042 0.076-0.040 0.165-0.058 0.246-5.525 0.044-10.993-0.051-16.533-0.066-0.234-0.001 0.17 0.144-0.282 0.144-2.617-0.002-5.159 0.038-7.837-0.106-0.266-0.014-0.129-0.268-0.912-0.23-0.138 0.007-1.317 0.041-1.622 0.096-0.041 0.008 0.174 0.127-0.206 0.13-2.208 0.018-4.522-0.009-6.726-0.082-0.356-0.012 0.023-0.138-0.23-0.148-1.797-0.067-3.752 0.029-5.469-0.086-1.15-0.077-0.724-0.296-1.335-0.511-0.086-0.030-0.798-0.035-0.835-0.16-0.095-0.315 0.25-0.659 0.109-0.994-0.030-0.072-0.983 0.006-0.419-0.169 0.039-0.012 0.731-0.070 0.901-0.129 0.118-0.041-0.095-0.168 0.147-0.221s0.507 0.054 0.908-0.007c0.401-0.062 0.225-0.207 1.025-0.224zM78.159 30.718c0.633 0.122 0.726-0.324 0.042-0.217-0.034 0.006-0.074 0.211-0.042 0.217zM3.964 24.847c0.321 0.77 0.913 0.992 0.668 0.467-0.23-0.521-0.759-0.699-0.668-0.467zM1.087 17.131c-0.089 0.964 0.556 1.033 0.353 0.062-0.010-0.057-0.347-0.118-0.353-0.062zM19.784 1.858c-0.009-0.006-0.52-0.012-0.533-0.006-0.273 0.141 0.751 0.153 0.533 0.006zM2.853 9.062c-0.23 0.215-0.528 1.030-0.266 0.746 0.202-0.227 0.542-1.013 0.266-0.746zM111.166 31.193c0.010 0.007 0.377 0.013 0.369-0.025-0.025-0.121-0.535-0.087-0.369 0.025zM14.465 1.694c-2.086 0.179-3.509 0.071-1.159-0.355 0.423-0.059-0.883 0.32-0.338 0.272 0.98-0.081 1.618-0.468 2.642-0.302 0.177 0.024-1.031 0.365-1.148 0.386 0.001-0 0.002-0.001 0.004-0.001zM78.523 31.253c0.013 0.006 0.521 0.011 0.533 0.006 0.275-0.141-0.748-0.153-0.533-0.006zM132.572 31.469c0.028 0.012 1.207 0.024 1.245 0.013 0.615-0.231-1.767-0.256-1.245-0.013zM44.323 31.579c-0.554 0.142-1.217 0.159-1.659-0.020 0.551 0.010 1.105 0.011 1.659 0.020z"></path>
      <path fill="#2c003e" style="fill: var(--color2, #2c003e)" d="M28.11 16.44c0 0.197 0 0.404 0 0.621s-0.024 0.424-0.071 0.621c-0.034 0.149-0.071 0.281-0.112 0.397-0.041 0.108-0.092 0.21-0.153 0.305-0.061 0.088-0.136 0.173-0.224 0.254-0.088 0.075-0.197 0.149-0.326 0.224-0.041 0.027-0.149 0.064-0.326 0.112-0.176 0.041-0.397 0.092-0.661 0.153-0.258 0.061-0.549 0.125-0.875 0.193-0.319 0.068-0.648 0.136-0.987 0.204-0.332 0.061-0.665 0.125-0.997 0.193-0.326 0.061-0.624 0.119-0.895 0.173-0.265 0.047-0.492 0.092-0.682 0.132-0.183 0.034-0.305 0.054-0.366 0.061-0.115-1.241-0.224-2.472-0.326-3.693s-0.18-2.455-0.234-3.703c0.57 0.020 1.136 0.044 1.699 0.071 0.563 0.020 1.133 0.051 1.709 0.092 0.149 0.014 0.366 0.030 0.651 0.051 0.292 0.020 0.593 0.051 0.906 0.092 0.312 0.034 0.604 0.078 0.875 0.132 0.278 0.054 0.478 0.122 0.6 0.203 0.156 0.115 0.295 0.271 0.417 0.468s0.21 0.39 0.264 0.58c0.027 0.088 0.047 0.227 0.061 0.417 0.014 0.183 0.024 0.38 0.030 0.59s0.010 0.414 0.010 0.61c0.007 0.197 0.010 0.346 0.010 0.448zM25.577 16.573c0-0.075-0.003-0.153-0.010-0.234 0-0.088-0.003-0.17-0.010-0.244-0.014-0.109-0.034-0.22-0.061-0.336-0.020-0.122-0.051-0.237-0.092-0.346-0.041-0.115-0.092-0.22-0.153-0.315-0.061-0.102-0.136-0.19-0.224-0.265-0.047-0.041-0.163-0.071-0.346-0.092-0.183-0.027-0.383-0.044-0.6-0.051-0.217-0.014-0.421-0.020-0.61-0.020-0.19-0.007-0.312-0.010-0.366-0.010h-0.417c0.054 0.529 0.102 1.051 0.142 1.567 0.047 0.509 0.088 1.028 0.122 1.557 0.129-0.007 0.312-0.024 0.549-0.051 0.244-0.034 0.492-0.075 0.743-0.122 0.251-0.054 0.485-0.119 0.702-0.193 0.217-0.081 0.373-0.176 0.468-0.285 0.075-0.081 0.119-0.166 0.132-0.254 0.020-0.095 0.030-0.197 0.030-0.305zM35.161 13.897c-0.665 0.034-1.326 0.071-1.984 0.112-0.651 0.034-1.309 0.078-1.974 0.132l-0.020 0.804 2.625-0.153c0.034 0.231 0.058 0.458 0.071 0.682 0.020 0.224 0.031 0.451 0.031 0.682 0 0.095-0.003 0.193-0.010 0.295 0 0.102 0 0.2 0 0.295l-2.442 0.437 0.153 1.262c0.515-0.034 1.028-0.081 1.536-0.142 0.516-0.068 1.034-0.126 1.557-0.173 0.047 0.339 0.095 0.682 0.142 1.028 0.047 0.339 0.115 0.671 0.204 0.997-0.963-0.007-1.92-0.007-2.869 0-0.95 0.014-1.906 0.020-2.869 0.020 0.020-0.794 0.044-1.584 0.071-2.371s0.041-1.58 0.041-2.381v-0.193c0-0.461-0.007-0.919-0.020-1.374-0.014-0.461-0.027-0.926-0.041-1.394 0.536 0.007 1.068 0.010 1.597 0.010 0.536-0.007 1.075-0.010 1.618-0.010 0.414 0 0.824 0.010 1.231 0.030 0.414 0.014 0.828 0.030 1.241 0.051l0.112 1.353zM42.558 17.682l-0.010 1.587c-0.312 0.061-0.621 0.119-0.926 0.173s-0.614 0.102-0.926 0.142c-0.326 0.041-0.651 0.078-0.977 0.112s-0.651 0.051-0.977 0.051c-0.095 0-0.234-0.003-0.417-0.010s-0.373-0.020-0.57-0.041c-0.197-0.020-0.383-0.044-0.56-0.071-0.176-0.034-0.305-0.075-0.387-0.122-0.075-0.047-0.146-0.102-0.214-0.163-0.068-0.068-0.129-0.136-0.183-0.204-0.142-0.176-0.261-0.37-0.356-0.58s-0.17-0.427-0.224-0.651c-0.054-0.224-0.095-0.451-0.122-0.682-0.020-0.231-0.031-0.458-0.031-0.682 0-0.271 0.014-0.553 0.041-0.844 0.034-0.292 0.085-0.58 0.153-0.865s0.156-0.56 0.264-0.824c0.115-0.264 0.254-0.509 0.417-0.733 0.047-0.061 0.108-0.136 0.183-0.224s0.149-0.153 0.224-0.193c0.183-0.102 0.387-0.187 0.61-0.254 0.231-0.068 0.468-0.119 0.712-0.153 0.244-0.041 0.485-0.068 0.722-0.081 0.244-0.020 0.468-0.030 0.672-0.030 0.387 0 0.773 0.024 1.16 0.071 0.387 0.041 0.763 0.115 1.129 0.224-0.014 0.183-0.024 0.37-0.031 0.56-0.007 0.183-0.010 0.366-0.010 0.549 0 0.441 0.010 0.885 0.031 1.333-0.305-0.115-0.624-0.197-0.956-0.244-0.332-0.054-0.661-0.081-0.987-0.081-0.068 0-0.166 0.007-0.295 0.020-0.129 0.007-0.275 0.020-0.437 0.041-0.163 0.014-0.332 0.034-0.509 0.061-0.17 0.027-0.329 0.061-0.478 0.102s-0.282 0.088-0.397 0.143c-0.109 0.054-0.18 0.112-0.214 0.173-0.027 0.054-0.051 0.132-0.071 0.234-0.014 0.095-0.027 0.197-0.041 0.305-0.007 0.108-0.014 0.214-0.020 0.315 0 0.102 0 0.183 0 0.244s0.007 0.183 0.020 0.366 0.031 0.38 0.051 0.59c0.020 0.203 0.044 0.39 0.071 0.56 0.034 0.17 0.068 0.268 0.102 0.295 0.034 0.020 0.088 0.034 0.163 0.041 0.081 0 0.136 0 0.163 0 0.332 0 0.688-0.017 1.068-0.051s0.763-0.078 1.15-0.132c0.393-0.061 0.78-0.122 1.16-0.183 0.38-0.068 0.733-0.132 1.058-0.193zM48.49 19.839c-0.807 0.061-1.611 0.119-2.411 0.173-0.794 0.054-1.594 0.105-2.401 0.153-0.034-1.296-0.061-2.581-0.081-3.856-0.020-1.282-0.058-2.574-0.112-3.876 0.454-0.007 0.902-0.020 1.343-0.041s0.885-0.047 1.333-0.081c-0.075 0.502-0.146 1.007-0.214 1.516-0.061 0.502-0.108 1.007-0.142 1.516-0.027 0.427-0.051 0.855-0.071 1.282-0.014 0.421-0.027 0.845-0.041 1.272 0.448 0.014 0.889 0.020 1.323 0.020 0.441 0 0.882 0.007 1.323 0.020l0.153 1.903zM53.374 12.625c-0.034 0.414-0.047 0.828-0.041 1.241 0.007 0.407 0.003 0.814-0.010 1.221l-1.129-0.041c-0.007 0.237-0.014 0.471-0.020 0.702 0 0.231 0 0.465 0 0.702 0 0.285 0 0.566 0 0.844 0.007 0.271 0.014 0.549 0.020 0.834l1.038 0.020c-0.014 0.197-0.020 0.397-0.020 0.6s0 0.407 0 0.61c0 0.17 0.003 0.339 0.010 0.509 0.014 0.17 0.037 0.336 0.071 0.499l-3.653 0.061c0-0.332-0.003-0.658-0.010-0.977-0.007-0.326-0.020-0.655-0.041-0.987l0.661-0.010c-0.034-0.638-0.075-1.268-0.122-1.892-0.041-0.624-0.085-1.252-0.132-1.882l-0.967-0.122c-0.014-0.285-0.027-0.566-0.041-0.845-0.007-0.285-0.017-0.57-0.031-0.855 0.739-0.027 1.472-0.058 2.198-0.092 0.733-0.041 1.472-0.088 2.218-0.142zM62.653 16.817c0 0.597-0.003 1.187-0.010 1.77 0 0.577-0.003 1.163-0.010 1.76-0.421-0.020-0.838-0.030-1.251-0.030-0.204 0-0.41 0.010-0.621 0.030-0.204 0.020-0.407 0.047-0.61 0.081-0.258-0.563-0.516-1.119-0.773-1.669-0.258-0.556-0.516-1.116-0.773-1.679-0.19-0.414-0.37-0.828-0.539-1.241s-0.339-0.831-0.509-1.252c-0.061 0.916-0.125 1.828-0.193 2.737-0.061 0.902-0.112 1.811-0.153 2.727l-2.198-0.061c-0.034-1.302-0.064-2.598-0.092-3.887s-0.075-2.584-0.142-3.887l3.978-0.020c0.136 0.339 0.261 0.682 0.376 1.028 0.122 0.339 0.237 0.685 0.346 1.038 0.156 0.536 0.332 1.068 0.529 1.597 0.197 0.522 0.393 1.048 0.59 1.577-0.007-0.848-0.024-1.692-0.051-2.533-0.020-0.841-0.037-1.689-0.051-2.544l2.055 0.244c0.027 0.705 0.051 1.407 0.071 2.106s0.031 1.401 0.031 2.106zM69.958 13.897c-0.665 0.034-1.326 0.071-1.984 0.112-0.651 0.034-1.309 0.078-1.974 0.132l-0.020 0.804 2.625-0.153c0.034 0.231 0.058 0.458 0.071 0.682 0.020 0.224 0.031 0.451 0.031 0.682 0 0.095-0.003 0.193-0.010 0.295 0 0.102 0 0.2 0 0.295l-2.442 0.437 0.153 1.262c0.516-0.034 1.028-0.081 1.536-0.142 0.516-0.068 1.034-0.126 1.557-0.173 0.047 0.339 0.095 0.682 0.142 1.028 0.047 0.339 0.115 0.671 0.204 0.997-0.963-0.007-1.92-0.007-2.869 0-0.95 0.014-1.906 0.020-2.869 0.020 0.020-0.794 0.044-1.584 0.071-2.371s0.041-1.58 0.041-2.381v-0.193c0-0.461-0.007-0.919-0.020-1.374-0.014-0.461-0.027-0.926-0.041-1.394 0.536 0.007 1.068 0.010 1.597 0.010 0.536-0.007 1.075-0.010 1.618-0.010 0.414 0 0.824 0.010 1.231 0.030 0.414 0.014 0.828 0.030 1.241 0.051l0.112 1.353zM81.546 17.682l-0.010 1.587c-0.312 0.061-0.621 0.119-0.926 0.173s-0.614 0.102-0.926 0.142c-0.325 0.041-0.651 0.078-0.976 0.112s-0.651 0.051-0.977 0.051c-0.094 0-0.234-0.003-0.417-0.010s-0.374-0.020-0.57-0.041c-0.196-0.020-0.383-0.044-0.56-0.071-0.176-0.034-0.305-0.075-0.386-0.122-0.075-0.047-0.146-0.102-0.214-0.163-0.068-0.068-0.129-0.136-0.183-0.204-0.142-0.176-0.261-0.37-0.356-0.58s-0.17-0.427-0.224-0.651c-0.054-0.224-0.095-0.451-0.122-0.682-0.020-0.231-0.031-0.458-0.031-0.682 0-0.271 0.013-0.553 0.041-0.844 0.034-0.292 0.085-0.58 0.153-0.865s0.156-0.56 0.264-0.824c0.115-0.264 0.254-0.509 0.418-0.733 0.048-0.061 0.109-0.136 0.183-0.224s0.149-0.153 0.224-0.193c0.183-0.102 0.386-0.187 0.61-0.254 0.231-0.068 0.468-0.119 0.712-0.153 0.244-0.041 0.485-0.068 0.723-0.081 0.244-0.020 0.468-0.030 0.671-0.030 0.387 0 0.773 0.024 1.16 0.071 0.386 0.041 0.763 0.115 1.129 0.224-0.013 0.183-0.024 0.37-0.031 0.56-0.007 0.183-0.010 0.366-0.010 0.549 0 0.441 0.010 0.885 0.031 1.333-0.305-0.115-0.624-0.197-0.956-0.244-0.332-0.054-0.661-0.081-0.987-0.081-0.068 0-0.166 0.007-0.295 0.020-0.129 0.007-0.275 0.020-0.438 0.041-0.163 0.014-0.333 0.034-0.509 0.061-0.17 0.027-0.329 0.061-0.478 0.102s-0.282 0.088-0.397 0.143c-0.108 0.054-0.179 0.112-0.214 0.173-0.027 0.054-0.051 0.132-0.071 0.234-0.014 0.095-0.028 0.197-0.041 0.305-0.007 0.108-0.013 0.214-0.020 0.315 0 0.102 0 0.183 0 0.244s0.007 0.183 0.020 0.366 0.031 0.38 0.051 0.59c0.021 0.203 0.045 0.39 0.071 0.56 0.034 0.17 0.068 0.268 0.102 0.295 0.034 0.020 0.088 0.034 0.162 0.041 0.082 0 0.136 0 0.163 0 0.333 0 0.688-0.017 1.069-0.051s0.763-0.078 1.15-0.132c0.393-0.061 0.78-0.122 1.159-0.183 0.38-0.068 0.733-0.132 1.058-0.193zM90.958 15.749c0 0.088 0 0.176 0 0.265 0 0.081-0.004 0.163-0.010 0.244-0.007 0.068-0.017 0.187-0.031 0.356-0.007 0.17-0.020 0.366-0.041 0.59-0.013 0.217-0.034 0.448-0.061 0.692-0.020 0.244-0.048 0.471-0.081 0.682-0.028 0.203-0.058 0.38-0.092 0.529s-0.068 0.241-0.102 0.275c-0.203 0.203-0.448 0.356-0.732 0.458-0.278 0.095-0.57 0.159-0.875 0.193s-0.61 0.047-0.916 0.041c-0.305-0.007-0.59-0.010-0.854-0.010-0.088 0-0.237 0-0.448 0-0.21-0.007-0.451-0.014-0.722-0.020-0.265-0.007-0.543-0.017-0.834-0.030-0.292-0.020-0.566-0.044-0.825-0.071-0.251-0.034-0.471-0.071-0.661-0.112-0.184-0.047-0.298-0.105-0.346-0.173-0.054-0.075-0.102-0.156-0.143-0.244s-0.078-0.173-0.112-0.254c-0.089-0.224-0.17-0.461-0.244-0.712-0.074-0.258-0.139-0.519-0.194-0.783-0.048-0.271-0.088-0.539-0.122-0.804-0.028-0.264-0.041-0.515-0.041-0.753 0-0.129 0.010-0.295 0.031-0.499 0.021-0.21 0.048-0.434 0.082-0.671 0.034-0.244 0.074-0.492 0.122-0.743s0.098-0.485 0.153-0.702c0.061-0.217 0.125-0.404 0.194-0.56 0.068-0.163 0.142-0.271 0.223-0.326 0.068-0.047 0.194-0.092 0.377-0.132s0.397-0.075 0.641-0.102c0.244-0.034 0.505-0.061 0.783-0.081 0.278-0.027 0.543-0.047 0.794-0.061 0.251-0.020 0.478-0.034 0.682-0.041s0.353-0.010 0.447-0.010c0.129 0 0.302 0.007 0.519 0.020 0.223 0.014 0.464 0.037 0.722 0.071 0.258 0.027 0.519 0.064 0.784 0.112 0.264 0.041 0.509 0.092 0.732 0.153 0.231 0.061 0.428 0.129 0.59 0.203s0.265 0.156 0.305 0.244c0.034 0.075 0.065 0.183 0.092 0.326 0.034 0.136 0.061 0.292 0.081 0.468s0.037 0.363 0.051 0.56c0.021 0.197 0.034 0.387 0.041 0.57 0.013 0.176 0.024 0.339 0.031 0.488s0.010 0.268 0.010 0.356zM89.136 16.084c0-0.136-0.007-0.278-0.020-0.427-0.013-0.156-0.057-0.292-0.132-0.407-0.054-0.081-0.186-0.146-0.397-0.193-0.203-0.047-0.431-0.081-0.682-0.102-0.244-0.020-0.481-0.030-0.712-0.030-0.231-0.007-0.394-0.010-0.488-0.010-0.074 0-0.207 0.007-0.397 0.020-0.184 0.014-0.38 0.037-0.59 0.071-0.204 0.027-0.394 0.064-0.57 0.112-0.176 0.041-0.285 0.092-0.326 0.153-0.040 0.047-0.074 0.139-0.101 0.275-0.021 0.129-0.041 0.271-0.061 0.427-0.014 0.149-0.024 0.295-0.031 0.438-0.007 0.136-0.010 0.234-0.010 0.295 0 0.054 0 0.136 0 0.244 0.007 0.108 0.017 0.22 0.031 0.336s0.028 0.224 0.041 0.326c0.020 0.102 0.048 0.176 0.081 0.224 0.020 0.034 0.081 0.064 0.183 0.092s0.224 0.054 0.366 0.081c0.15 0.020 0.306 0.037 0.468 0.051s0.319 0.027 0.468 0.041c0.156 0.007 0.292 0.014 0.407 0.020 0.122 0 0.207 0 0.254 0 0.081 0 0.22-0.007 0.417-0.020 0.204-0.014 0.414-0.034 0.631-0.061 0.224-0.034 0.427-0.071 0.61-0.112 0.191-0.047 0.313-0.102 0.367-0.163 0.040-0.047 0.074-0.146 0.101-0.295 0.028-0.156 0.048-0.322 0.061-0.499 0.014-0.183 0.021-0.356 0.021-0.519 0.007-0.17 0.010-0.292 0.010-0.366zM100.685 15.749c0 0.088 0 0.176 0 0.265 0 0.081-0.004 0.163-0.010 0.244-0.007 0.068-0.017 0.187-0.031 0.356-0.007 0.17-0.020 0.366-0.040 0.59-0.014 0.217-0.034 0.448-0.061 0.692-0.021 0.244-0.048 0.471-0.082 0.682-0.027 0.203-0.057 0.38-0.092 0.529s-0.068 0.241-0.102 0.275c-0.203 0.203-0.447 0.356-0.732 0.458-0.278 0.095-0.57 0.159-0.875 0.193s-0.61 0.047-0.915 0.041c-0.305-0.007-0.59-0.010-0.855-0.010-0.088 0-0.237 0-0.447 0-0.211-0.007-0.451-0.014-0.723-0.020-0.264-0.007-0.543-0.017-0.834-0.030-0.292-0.020-0.566-0.044-0.824-0.071-0.252-0.034-0.472-0.071-0.662-0.112-0.183-0.047-0.298-0.105-0.346-0.173-0.054-0.075-0.102-0.156-0.142-0.244s-0.078-0.173-0.112-0.254c-0.088-0.224-0.17-0.461-0.244-0.712-0.074-0.258-0.139-0.519-0.194-0.783-0.047-0.271-0.088-0.539-0.122-0.804-0.027-0.264-0.040-0.515-0.040-0.753 0-0.129 0.010-0.295 0.031-0.499 0.020-0.21 0.047-0.434 0.081-0.671 0.034-0.244 0.074-0.492 0.122-0.743s0.098-0.485 0.153-0.702c0.061-0.217 0.126-0.404 0.194-0.56 0.068-0.163 0.142-0.271 0.224-0.326 0.068-0.047 0.193-0.092 0.377-0.132s0.397-0.075 0.641-0.102c0.244-0.034 0.505-0.061 0.784-0.081 0.278-0.027 0.543-0.047 0.793-0.061 0.251-0.020 0.478-0.034 0.682-0.041s0.353-0.010 0.448-0.010c0.129 0 0.301 0.007 0.519 0.020 0.224 0.014 0.464 0.037 0.723 0.071 0.257 0.027 0.519 0.064 0.783 0.112 0.265 0.041 0.509 0.092 0.733 0.153 0.231 0.061 0.427 0.129 0.59 0.203s0.264 0.156 0.305 0.244c0.034 0.075 0.064 0.183 0.092 0.326 0.034 0.136 0.061 0.292 0.081 0.468s0.037 0.363 0.051 0.56c0.020 0.197 0.034 0.387 0.040 0.57 0.013 0.176 0.024 0.339 0.031 0.488s0.010 0.268 0.010 0.356zM98.864 16.084c0-0.136-0.007-0.278-0.021-0.427-0.013-0.156-0.057-0.292-0.132-0.407-0.054-0.081-0.187-0.146-0.397-0.193-0.203-0.047-0.43-0.081-0.682-0.102-0.244-0.020-0.481-0.030-0.712-0.030-0.231-0.007-0.393-0.010-0.488-0.010-0.074 0-0.207 0.007-0.397 0.020-0.183 0.014-0.38 0.037-0.59 0.071-0.204 0.027-0.394 0.064-0.57 0.112-0.176 0.041-0.285 0.092-0.325 0.153-0.041 0.047-0.074 0.139-0.102 0.275-0.020 0.129-0.041 0.271-0.061 0.427-0.013 0.149-0.024 0.295-0.031 0.438-0.007 0.136-0.010 0.234-0.010 0.295 0 0.054 0 0.136 0 0.244 0.007 0.108 0.017 0.22 0.031 0.336s0.028 0.224 0.041 0.326c0.020 0.102 0.048 0.176 0.081 0.224 0.021 0.034 0.082 0.064 0.184 0.092s0.223 0.054 0.366 0.081c0.149 0.020 0.305 0.037 0.468 0.051s0.319 0.027 0.468 0.041c0.156 0.007 0.291 0.014 0.406 0.020 0.122 0 0.207 0 0.254 0 0.082 0 0.22-0.007 0.418-0.020 0.203-0.014 0.414-0.034 0.63-0.061 0.224-0.034 0.428-0.071 0.611-0.112 0.19-0.047 0.312-0.102 0.366-0.163 0.041-0.047 0.074-0.146 0.102-0.295 0.027-0.156 0.047-0.322 0.061-0.499 0.013-0.183 0.020-0.356 0.020-0.519 0.007-0.17 0.010-0.292 0.010-0.366zM109.831 20.042c-0.326 0.075-0.651 0.142-0.977 0.204-0.319 0.068-0.644 0.129-0.976 0.183-0.407-0.617-0.81-1.224-1.211-1.821-0.394-0.604-0.804-1.204-1.231-1.801l-1.089 1.058-0.102 2.259c-0.156-0.007-0.312-0.014-0.468-0.020-0.149 0-0.298 0-0.447 0-0.143 0-0.282 0.003-0.418 0.010s-0.272 0.020-0.407 0.041c-0.081-0.624-0.159-1.245-0.234-1.862-0.068-0.624-0.129-1.252-0.183-1.882s-0.099-1.258-0.132-1.882c-0.028-0.631-0.054-1.262-0.081-1.892 0.508 0.014 1.011 0.024 1.505 0.030 0.502 0 1.007 0.007 1.516 0.020l-0.061 2.36c0.366-0.38 0.712-0.767 1.038-1.16s0.661-0.794 1.007-1.201c0.326-0.020 0.655-0.041 0.987-0.061 0.333-0.027 0.662-0.054 0.987-0.081l-0.040 0.753-2.157 2.249c0.516 0.766 1.034 1.519 1.557 2.259 0.529 0.739 1.069 1.485 1.618 2.238zM114.094 12.625c-0.034 0.414-0.047 0.828-0.040 1.241 0.007 0.407 0.003 0.814-0.010 1.221l-1.129-0.041c-0.007 0.237-0.014 0.471-0.021 0.702 0 0.231 0 0.465 0 0.702 0 0.285 0 0.566 0 0.844 0.007 0.271 0.013 0.549 0.021 0.834l1.037 0.020c-0.013 0.197-0.020 0.397-0.020 0.6s0 0.407 0 0.61c0 0.17 0.003 0.339 0.010 0.509 0.014 0.17 0.038 0.336 0.071 0.499l-3.652 0.061c0-0.332-0.004-0.658-0.010-0.977-0.007-0.326-0.020-0.655-0.040-0.987l0.661-0.010c-0.034-0.638-0.074-1.268-0.122-1.892-0.041-0.624-0.085-1.252-0.132-1.882l-0.966-0.122c-0.014-0.285-0.028-0.566-0.041-0.845-0.007-0.285-0.017-0.57-0.031-0.855 0.739-0.027 1.472-0.058 2.198-0.092 0.732-0.041 1.472-0.088 2.218-0.142zM121.186 13.897c-0.665 0.034-1.326 0.071-1.984 0.112-0.651 0.034-1.309 0.078-1.974 0.132l-0.020 0.804 2.625-0.153c0.034 0.231 0.058 0.458 0.071 0.682 0.020 0.224 0.031 0.451 0.031 0.682 0 0.095-0.003 0.193-0.010 0.295 0 0.102 0 0.2 0 0.295l-2.442 0.437 0.153 1.262c0.516-0.034 1.028-0.081 1.537-0.142 0.515-0.068 1.034-0.126 1.557-0.173 0.047 0.339 0.094 0.682 0.142 1.028 0.048 0.339 0.115 0.671 0.203 0.997-0.963-0.007-1.919-0.007-2.869 0-0.95 0.014-1.906 0.020-2.87 0.020 0.021-0.794 0.045-1.584 0.071-2.371s0.041-1.58 0.041-2.381v-0.193c0-0.461-0.007-0.919-0.021-1.374-0.013-0.461-0.027-0.926-0.040-1.394 0.536 0.007 1.068 0.010 1.597 0.010 0.536-0.007 1.075-0.010 1.618-0.010 0.414 0 0.825 0.010 1.231 0.030 0.414 0.014 0.828 0.030 1.241 0.051l0.112 1.353zM129.773 18.302c0 0.326-0.078 0.59-0.234 0.794-0.156 0.197-0.377 0.356-0.661 0.478-0.237 0.102-0.536 0.183-0.895 0.244-0.36 0.054-0.733 0.095-1.119 0.122-0.387 0.020-0.766 0.034-1.14 0.041s-0.685 0.010-0.935 0.010c-0.428 0-0.851-0.007-1.272-0.020-0.414-0.014-0.834-0.034-1.262-0.061 0.021-0.692 0-1.377-0.061-2.055 0.509 0.014 1.014 0.027 1.516 0.041 0.509 0.007 1.018 0.017 1.526 0.030 0.196 0.007 0.394 0.014 0.59 0.020 0.204 0.007 0.407 0.010 0.61 0.010 0.034 0 0.085 0 0.153 0s0.138-0.003 0.214-0.010c0.074-0.007 0.142-0.017 0.203-0.030 0.068-0.014 0.119-0.034 0.153-0.061 0.028-0.027 0.044-0.064 0.051-0.112 0.007-0.054 0.010-0.102 0.010-0.142 0-0.075-0.010-0.163-0.031-0.265-0.020-0.108-0.051-0.197-0.092-0.264-0.007-0.007-0.031-0.014-0.071-0.020-0.034-0.007-0.074-0.010-0.122-0.010-0.047-0.007-0.092-0.010-0.132-0.010-0.041-0.007-0.065-0.010-0.071-0.010-0.434-0.034-0.868-0.058-1.302-0.071-0.427-0.014-0.858-0.037-1.292-0.071-0.197-0.020-0.4-0.041-0.611-0.061-0.203-0.020-0.393-0.058-0.569-0.112-0.17-0.047-0.316-0.153-0.438-0.315-0.115-0.17-0.211-0.359-0.285-0.57-0.068-0.217-0.119-0.434-0.153-0.651-0.028-0.217-0.041-0.4-0.041-0.549 0-0.244 0.024-0.475 0.071-0.692 0.048-0.224 0.122-0.431 0.224-0.621 0.108-0.19 0.244-0.356 0.407-0.499 0.162-0.149 0.362-0.271 0.6-0.366 0.407-0.156 0.841-0.265 1.302-0.326 0.468-0.061 0.916-0.092 1.343-0.092 0.502 0 0.997 0.030 1.485 0.092s0.976 0.139 1.465 0.234c-0.007 0.197-0.014 0.393-0.021 0.59 0 0.19 0 0.383 0 0.58s0.010 0.397 0.030 0.6c0.021 0.197 0.041 0.393 0.061 0.59-0.644 0.014-1.288 0.027-1.933 0.041-0.638 0.007-1.282 0.024-1.933 0.051-0.081 0-0.194 0.003-0.336 0.010-0.135 0.007-0.268 0.017-0.397 0.030-0.129 0.007-0.241 0.014-0.336 0.020s-0.143 0.010-0.143 0.010c-0.034 0.075-0.054 0.153-0.061 0.234-0.007 0.075-0.010 0.153-0.010 0.234 0 0.041 0 0.092 0 0.153 0.007 0.061 0.024 0.108 0.051 0.142 0.007 0.007 0.064 0.017 0.173 0.030s0.228 0.027 0.356 0.041c0.135 0.014 0.261 0.027 0.377 0.041 0.122 0.014 0.196 0.020 0.223 0.020 0.224 0.020 0.485 0.044 0.784 0.071 0.305 0.027 0.614 0.058 0.926 0.092 0.319 0.034 0.624 0.078 0.916 0.132 0.292 0.047 0.545 0.105 0.763 0.173 0.196 0.068 0.377 0.176 0.54 0.326 0.17 0.142 0.316 0.312 0.438 0.509 0.122 0.19 0.217 0.393 0.284 0.61 0.075 0.21 0.112 0.417 0.112 0.621z"></path>
    </symbol>
    <symbol id="icon-cookie-accept" viewBox="0 0 150 32">
      <path fill="#2c003e" style="fill: var(--color2, #2c003e)" d="M0.744 16.372c0-8.22 6.664-14.884 14.884-14.884h119.070c8.22 0 14.884 6.664 14.884 14.884s-6.663 14.884-14.884 14.884h-119.070c-8.22 0-14.884-6.664-14.884-14.884z"></path>
      <path fill="#fff" style="fill: var(--color3, #fff)" d="M18.787 0.015c1.859-0.039 4.295 0.003 6.146 0.060 0.58 0.018 0.286 0.097 0.687 0.112 0.783 0.031 1.513-0.008 2.287 0.029 0.257 0.013-0.063 0.137 0.206 0.148 1.474 0.055 2.869 0.023 4.362 0.050 7.356 0.131 14.587 0.178 22.033 0.235 2.455 0.019 5.44 0.132 7.976 0.083 0.296-0.006 0.12-0.116 0.176-0.125 0.883-0.138 0.59 0.083 1.166 0.112 2.289 0.116 4.835 0.126 7.038 0.084 0.937-0.018-0.002-0.236 0.941-0.114 0.066 0.008-0.172 0.125 0.085 0.137 0.583 0.028 1.689 0.007 2.141 0.016 0.87 0.018 1.015 0.017 1.839 0.019 1.125 0.003 2.465 0.061 3.673 0.034 0.257-0.006-0.083-0.125 0.327-0.146s1.5-0.010 1.868 0.018c0.367 0.028 0.211 0.122 0.275 0.144 0.535 0.182 1.794-0.070 1.956-0.076 2.954-0.106 5.488 0.037 8.261 0.037 2.105-0.001 4.357-0.048 6.361-0.041 2.387 0.008 4.409 0.073 6.728 0.062 0.245-0.001-0.042-0.141 0.257-0.143 3.175-0.016 6.329-0.001 9.49 0.094 0.317 0.010-0.092 0.133 0.225 0.15 1.939 0.101 5.008 0.345 6.16-0.192 1.314 0.021 2.908 0.043 4.084 0.151 0.758 0.070 0.022 0.204 0.953 0.147 0.21-0.013-0.063-0.13 0.252-0.141 1.325-0.043 2.774-0.005 4.086-0.066 0.266-0.013 0.194-0.118 0.269-0.137 0.635-0.154 1.692 0.1 1.923 0.119 0.604 0.047 1.152 0.072 1.678 0.084 1.036 0.026 1.991 0.091 3.079 0.311 0.386 0.082-0.042-0.154 0.333-0.077 1.938 0.407 3.853 1.271 5.401 2.427 0.344 0.258-0.048 0.13 0.11 0.258 0.687 0.573 0.985 0.526 1.598 1.145 0.126 0.132-0.019 0.137-0.003 0.168 0.252 0.481 0.735 0.631 0.832 0.728 1.194 1.214 1.592 2.272 2.355 3.687 0.089 0.173 0.015-0.281 0.258 0.212 0.967 1.992 1.482 4.292 1.446 6.556-0.019 1.482-0.263 2.943-0.702 4.298-0.177 0.53-0.156 0.119-0.177 0.15-0.347 0.485-0.24 0.907-0.298 1.084-0.459 1.375-1.325 2.417-1.645 3.384-2.884 3.981-7.69 6.552-12.587 6.417-1.162-0.025-2.324-0.061-3.484-0.114-0.075-0.003 0.059-0.128-0.090-0.134-1.794-0.070-1.45 0.124-2.637 0.361-0.299 0.059-1.209-0.227-1.29-0.248-0.293-0.077 0.011-0.263-0.087-0.278-0.813-0.118-0.68 0.496-1.776 0.496-0.034-0.001 0.11-0.114 0.018-0.125-0.286-0.035-0.569 0.010-0.849-0.029-0.64-0.090-0.868-0.388-1.846-0.215-0.124 0.023 0.066 0.371-0.914 0.354-0.39-0.007-2.117-0.001-2.601-0.023s-0.152-0.135-0.186-0.14c-1.302-0.148-0.809-0.21-1.462-0.429s-0.471 0.303-0.737 0.361c-0.266 0.058-1.221-0.064-1.456-0.107s0.057-0.114-0.151-0.138c-1.383-0.157-0.607 0.259-1.063 0.342-1.075 0.196-1.911-0.191-2.895-0.229-0.266-0.010-0.048 0.078-0.286 0.086-0.938 0.031-1.503-0.089-2.571 0.021-0.174 0.018-1.037 0.251-1.596 0.080-0.079-0.025 0.146-0.121-0.254-0.143-0.598-0.032-1.674-0.053-2.317-0.021-0.474 0.024 0.070 0.183-0.528 0.133-0.265-0.022 0.227-0.115-0.272-0.149-0.496-0.034-1.764-0.030-2.246-0.026s-0.218 0.124-0.257 0.132c-0.235 0.046-1.159 0.105-1.241 0.104-4.118 0.015-7.917-0.188-11.926-0.121-0.315 0.005-0.106 0.132-0.153 0.134-1.078 0.053-0.228-0.285-0.981-0.398 0.109 0.258-0.336 0.211-1.094 0.239-0.366 0.014-0.167 0.114-0.2 0.124-0.543 0.152-0.92-0.044-1.017-0.084-0.359-0.147-0.75 0.027-0.994-0.072s0.318-0.243-0.41-0.241c-0.204 0.092 0.336 0.334-0.217 0.373-2.084 0.148-5.977-0.041-7.653-0.061-1.673-0.020-2.213-0.003-3.188-0.036-1.761-0.060-1.116 0.119-2.209 0.201-1.097 0.082-0.564-0.358-0.721-0.453-0.155-0.095-0.324 0.003-0.516-0.049s0.223-0.116-0.228-0.136c-0.451-0.020-1.686 0.149-1.846 0.248-0.338 0.21 0.218 0.43-0.977 0.352-0.069-0.005 0.154-0.12-0.109-0.132-2.090-0.089-4.26-0.095-6.347-0.173-0.287-0.011-0.030-0.14-0.197-0.148-1.74-0.082-1.118 0.135-2.071 0.376 0.214-0.321-0.313-0.517-1.633-0.519-0.794-0.001-0.657 0.139-1.17 0.238-0.154 0.030-0.716-0.066-0.817-0.001-0.336 0.216 0.193 0.457-1.168 0.361-0.060-0.005 0.13-0.123-0.076-0.13-1.334-0.047-1.493 0.179-2.935 0.206-1.13 0.021-3.14-0.116-4.427-0.139 0.027-0.361-1.188-0.278-1.681-0.029-0.835-0.010-1.737 0.004-2.544-0.030-0.278-0.012-0.095-0.116-0.13-0.128-0.537-0.177-0.9 0.065-1.080 0.075-1.954 0.092-3.545-0.091-5.41 0.088-0.066 0.006-0.173 0.257-0.672 0.074-0.032-0.013 0.584-0.127-0.294-0.136s-2.531-0.143-3.749-0.027c-0.295 0.028-1.040 0.232-1.638 0.072-0.080-0.022 0.008-0.093-0.108-0.134-0.372-0.128-0.575 0.126-1.012-0.089s-1.346-0.377-2.575-0.228c-0.039 0.004-0.33 0.205-0.716 0.202-0.617-0.005-1.492-0.047-2.136-0.046-0.308 0.001-0.111 0.125-0.164 0.128-1.759 0.059-3.087-0.012-4.805-0.064-0.311-0.009-0.627-0.027-0.965-0.056-0.402-0.025-1.604 0.007-2.35-0.312-0.8-0.363 0.178-0.67-1.676-1.137-0.719-0.207-2.021 0.086-3.034-1.043-2.39-1.45-3.997-3.577-5.329-6.005-0.060-0.108-0.425-0.382-0.536-0.662-0.164-0.413-0.15-0.678-0.245-0.977-0.388-1.258-0.703-2.435-0.781-3.711-0.023-0.486 0.086-0.319 0.081-0.893 0-0.051-0.001-0.101-0.002-0.149-0.013-0.495-0.112-0.885 0.019-1.586 0.115-0.584 0.48-1.112 0.689-1.843-0.26-0.091-0.149-0.613 0.096-1.536 0.048-0.177-0.109-0.025-0.091-0.111 0.074-0.353 0.271-0.628 0.356-0.959 0.021-0.081-0.064-0.123-0.051-0.191 0.104-0.591 0.757-1.328 0.874-1.441 0.439-0.457 0.498-0.76 0.821-1.115 0.324-0.346-0.038 0.259 0.316-0.159 0.732-0.865 1.736-1.916 2.643-2.619 0.361-0.281 0.038-0.189 0.088-0.232 0.738-0.614 1.63-0.99 1.98-1.46 0.89 0.282 0.469-0.353 1.804-0.747 0.107-0.028 0.336 0.213-0.025 0.401-0.358 0.187-0.961 0.346-1.426 0.671-0.116 0.073-0.626 0.697-0.697 0.767-0.596 0.534-0.941 0.235-0.994 0.237-0.567 0.056-1.103 0.902-1.26 1.081-0.762 0.817-1.433 1.487-1.931 2.276-0.32 0.519-0.097 0.737-0.353 1.123-0.809 1.296-1.432 1.666-1.557 3.182-0.012 0.326 0.368 0.108-0.15 1.12-0.035 0.059-0.438 0.838-0.343 1.34 0.011 0.062 0.107 0.072 0.106 0.152-0.007 0.531-0.108 0.878-0.082 1.457 0.003 0.062 0.007 0.126 0.011 0.191 0.034 0.539 0.109 1.144 0.153 1.729 0.026 0.392-0.059 0.927-0.062 1.124-0.016 0.564 0.341 1.072 0.297 1.436-0.039 0.376-0.482-0.201-0.277 0.704 0.247-0.052 0.515-0.068 0.769-0.107 0.662 1.8 1.628 3.486 2.985 4.879 0.169 0.171 0.093-0.098 0.277 0.080 0.777 0.741 1.457 1.413 2.425 1.983 0.751 0.439 1.661 0.739 2.505 1.022 0.404 0.475 1.735 0.782 2.695 0.945 0.337 0.061 0.303 0.132 0.544 0.187 0.914 0.187 0.503-0.113 0.756-0.131 0.418-0.039 0.678 0.009 0.927 0.088 0.42 0.126 0.779 0.339 1.613 0.331 0.072-0.001 0.951-0.306 1.072-0.325 0.769-0.124 0.127 0.106 0.609 0.129 0.879 0.041 1.489 0.114 2.52 0.025 0.301-0.026 1.022-0.217 1.605-0.070 0.077 0.019 0.034 0.12 0.096 0.126 1.119 0.098 1.148-0.219 1.788-0.326s1.627 0.111 1.828 0.175c0.526 0.163-0.403 0.070-0.431 0.086-0.334 0.191 0.386 0.158 0.936 0.174 0.080 0.311 0.849 0.292 0.571 0.015-0.032-0.030-0.46-0.001-0.571-0.015 0.483-0.305 1.329-0.344 2.263-0.059 0.437 0.134 0.024 0.289 1.352 0.232 0.603-0.026 0.37-0.24 0.902-0.298 1.216-0.133 2.795 0.067 4.049 0.035 0.455-0.011 0.012-0.129 0.323-0.14 0.825-0.032 1.553 0.056 2.381 0.011 0.075-0.004-0.108-0.127 0.149-0.128 1.953-0.014 3.654 0.064 5.693 0.067 0.985 0.001 2.747-0.067 3.768-0.053 1.769 0.023 3.945 0.201 5.457 0.158 0.986-0.028 0.77-0.15 1.192-0.234 0.815-0.162 2.258 0.128 2.452 0.173 0.006 0.002-0.842 0.030-0.39 0.093 0.263 0.131 0.38-0.093 0.39-0.093 0.128 0.029 1.822 0.057 2.158 0.033 0.183-0.013 0.081-0.129 0.176-0.134 2.266-0.104 4.535-0.134 6.833-0.079 0.040 0.002-0.020 0.132 0.075 0.136 1.33 0.058 2.182-0.101 3.279-0.196s1.967-0.063 2.616 0.16c0.828-0.028 2.015 0.071 2.698 0.13s0.779-0.193 0.839-0.198c1.875-0.16 2.96-0.015 4.906 0.007 0.925 0.011 2.759-0.026 3.761-0.053 0.792-0.022 1.268 0.037 1.997-0.001 0.099-0.005-0.001-0.118 0.030-0.122 0.813-0.135 0.423 0.141 0.591 0.19 0.609 0.179 0.985 0.274 2.028 0.19 0.24-0.019 0.941-0.416 1.379-0.439 0.57-0.029 0.355 0.113 0.951 0.078 0.051-0.003 0.041-0.091 0.409-0.087 1.709 0.017 3.574 0.068 5.349 0.059 0.243-0.001-0.068-0.14 0.283-0.144 1.645-0.017 3.448-0.011 5.050 0.054 0.394 0.016 0.147 0.114 0.233 0.143 0.526 0.175 1.271-0.079 1.395-0.084 2.934-0.122 5.18 0.108 8.17-0.002 0.163-0.006 1.416-0.279 1.975-0.045 0.038 0.016 0.591 0.255 1.081 0.091 0.030-0.010-0.315-0.133 0.287-0.121s1.57-0.070 2.396 0.066c0.261 0.043 0.88 0.281 1.661 0.091 0.051-0.013 1.256-0.443 1.686-0.147 0.070 0.049-0.003 0.363 0.929 0.202 0.178-0.031-0.145-0.101 0.324-0.145 0.719-0.067 1.671 0.017 2.555-0.123 0.154-0.025 0.81-0.238 1.336-0.076 0.083 0.025-0.074 0.13 0.204 0.142 1.321 0.056 2.704-0.014 4.045 0.059 0.476 0.025 0.233 0.195 0.728 0.24s1.494 0.089 2.012 0.012c0.519-0.077-0.048-0.348 0.729-0.369 0.1-0.003 0.199-0.005 0.299-0.008 2.972-0.069 5.939-0.921 8.337-2.75 0.361-0.282 0.010-0.115 0.521-0.549 2.004-1.539 4.036-5.388 4.515-7.506 0.46-1.688 0.222 0.508 0.5-0.814 0.125-0.652-0.16-1.375-0.167-1.525-0.005-0.135-0.010-0.266-0.016-0.394-0.065-1.306-0.088-2.3-0.432-3.496-0.081-0.269-0.132 0.029-0.201-0.198-0.24-0.771-0.494-1.586-0.845-2.277-0.16-0.309-0.217-0.207-0.36-0.49-0.351-0.674-0.687-1.258-1.073-1.906-0.036-0.060 0.345 0.233-0.004-0.222-0.568-0.73-1.323-1.632-2.225-2.222-0.269-0.173-0.403-0.008-0.869-0.518-0.1-0.102 0.203-0.239-0.595-0.462-0.136-0.051-1.424-0.402-1.947-0.81-0.135-0.113-0.47-0.477-0.848-0.563-0.051-0.010 0.109 0.166-0.194 0.081-1.066-0.294-2.209-0.515-3.346-0.538-0.301-0.004 0.139 0.139-0.307 0.132-0.143-0.001-0.291-0.001-0.443 0.001-1.255 0.015-2.708-0.013-3.876-0.047-0.487-0.014-0.15-0.117-0.186-0.128-0.571-0.181-0.908 0.063-1.097 0.078-1.177 0.085-2.074-0.029-3.159 0.001-0.3 0.008-0.087 0.125-0.147 0.135-0.618 0.102-0.158-0.108-0.549-0.131-1.097-0.065-2.319-0.056-3.428-0.041-0.407 0.006 0.051 0.141-0.315 0.144-2.163 0.023-4.412 0.010-6.524-0.064-0.397-0.014-0.147-0.118-0.23-0.142-0.572-0.166-1.408 0.061-1.601 0.082-0.875 0.099-1.215 0.007-1.988 0.024-3.778 0.086-8.441 0.025-12.007-0.013-4.647-0.048-8.252-0.147-12.682-0.122-0.281 0.002 0.002 0.14-0.24 0.143-3.135 0.033-6.22-0.021-9.36 0.019-0.258 0.003 0.113 0.134-0.3 0.144-0.848 0.020-1.923 0.013-2.781-0.029-0.418-0.020 0.143-0.133-0.278-0.151-0.981-0.042-2.032-0.052-3.039-0.031-0.429 0.009 0.218 0.143-0.339 0.145-3.795 0.013-7.522 0.036-11.358-0.137-0.263-0.012-0.494-0.285-1.053-0.232-0.042 0.076-0.040 0.165-0.058 0.246-5.525 0.044-10.993-0.051-16.533-0.066-0.234-0.001 0.17 0.144-0.282 0.144-2.617-0.002-5.159 0.038-7.837-0.106-0.266-0.014-0.129-0.268-0.912-0.23-0.138 0.007-1.317 0.041-1.622 0.096-0.041 0.008 0.174 0.127-0.206 0.13-2.208 0.018-4.522-0.009-6.726-0.082-0.356-0.012 0.023-0.138-0.23-0.148-1.797-0.067-3.752 0.029-5.469-0.086-1.15-0.077-0.724-0.296-1.335-0.511-0.086-0.030-0.798-0.035-0.835-0.16-0.095-0.315 0.25-0.659 0.109-0.994-0.030-0.072-0.983 0.006-0.419-0.169 0.039-0.012 0.731-0.070 0.901-0.129 0.118-0.041-0.095-0.168 0.147-0.221s0.507 0.054 0.908-0.007c0.401-0.062 0.225-0.207 1.025-0.224zM78.159 30.718c0.633 0.122 0.726-0.324 0.042-0.217-0.034 0.006-0.074 0.211-0.042 0.217zM3.964 24.847c0.321 0.77 0.913 0.992 0.668 0.467-0.23-0.521-0.759-0.699-0.668-0.467zM1.087 17.131c-0.089 0.964 0.556 1.033 0.353 0.062-0.010-0.057-0.347-0.118-0.353-0.062zM19.784 1.858c-0.009-0.006-0.52-0.012-0.533-0.006-0.273 0.141 0.751 0.153 0.533 0.006zM2.853 9.062c-0.23 0.215-0.528 1.030-0.266 0.746 0.202-0.227 0.542-1.013 0.266-0.746zM111.166 31.193c0.010 0.007 0.377 0.013 0.369-0.025-0.025-0.121-0.535-0.087-0.369 0.025zM14.465 1.694c-2.086 0.179-3.509 0.071-1.159-0.355 0.423-0.059-0.883 0.32-0.338 0.272 0.98-0.081 1.618-0.468 2.642-0.302 0.177 0.024-1.031 0.365-1.148 0.386 0.001-0 0.002-0.001 0.004-0.001zM78.523 31.253c0.013 0.006 0.521 0.011 0.533 0.006 0.275-0.141-0.748-0.153-0.533-0.006zM132.572 31.469c0.028 0.012 1.207 0.024 1.245 0.013 0.615-0.231-1.767-0.256-1.245-0.013zM44.323 31.579c-0.554 0.142-1.217 0.159-1.659-0.020 0.551 0.010 1.105 0.011 1.659 0.020z"></path>
      <path fill="#ebe7ec" style="fill: var(--color4, #ebe7ec)" d="M29.682 20.063l-1.547 0.234c-0.108-0.346-0.217-0.688-0.326-1.028-0.108-0.346-0.214-0.692-0.315-1.038l-2.503 0.092-0.315 1.353h-1.567c0.095-1.153 0.193-2.299 0.295-3.439s0.2-2.283 0.295-3.429c0.488-0.081 0.973-0.149 1.455-0.203 0.488-0.054 0.98-0.081 1.475-0.081 0.604 0 1.207 0.010 1.811 0.030 0.108 0.706 0.214 1.411 0.315 2.116 0.109 0.699 0.22 1.401 0.336 2.106 0.081 0.556 0.17 1.106 0.265 1.648 0.102 0.543 0.21 1.089 0.326 1.638zM27.138 16.847c-0.007-0.061-0.024-0.173-0.051-0.336-0.027-0.17-0.058-0.346-0.092-0.529-0.034-0.19-0.075-0.36-0.122-0.509-0.041-0.156-0.081-0.248-0.122-0.275-0.014-0.007-0.047-0.014-0.102-0.020-0.047-0.007-0.102-0.014-0.163-0.020-0.054-0.007-0.108-0.010-0.163-0.010s-0.092 0-0.112 0c-0.034 0-0.081 0-0.142 0-0.054 0-0.115 0.003-0.183 0.010-0.061 0-0.122 0.007-0.183 0.020-0.054 0.014-0.092 0.030-0.112 0.051-0.014 0.007-0.030 0.051-0.051 0.132s-0.047 0.183-0.081 0.305c-0.027 0.115-0.058 0.241-0.092 0.376-0.027 0.136-0.054 0.265-0.081 0.387s-0.051 0.227-0.071 0.315c-0.014 0.088-0.024 0.139-0.030 0.153l1.953-0.051zM37.19 17.682l-0.010 1.587c-0.312 0.061-0.621 0.119-0.926 0.173s-0.614 0.102-0.926 0.142c-0.326 0.041-0.651 0.078-0.977 0.112s-0.651 0.051-0.977 0.051c-0.095 0-0.234-0.003-0.417-0.010s-0.373-0.020-0.57-0.041c-0.197-0.020-0.383-0.044-0.56-0.071-0.176-0.034-0.305-0.075-0.387-0.122-0.075-0.047-0.146-0.102-0.214-0.163-0.068-0.068-0.129-0.136-0.183-0.204-0.142-0.176-0.261-0.37-0.356-0.58s-0.17-0.427-0.224-0.651c-0.054-0.224-0.095-0.451-0.122-0.682-0.020-0.231-0.030-0.458-0.030-0.682 0-0.271 0.014-0.553 0.041-0.844 0.034-0.292 0.085-0.58 0.153-0.865s0.156-0.56 0.265-0.824c0.115-0.264 0.254-0.509 0.417-0.733 0.047-0.061 0.108-0.136 0.183-0.224s0.149-0.153 0.224-0.193c0.183-0.102 0.387-0.187 0.61-0.254 0.231-0.068 0.468-0.119 0.712-0.153 0.244-0.041 0.485-0.068 0.722-0.081 0.244-0.020 0.468-0.030 0.672-0.030 0.387 0 0.773 0.024 1.16 0.071 0.387 0.041 0.763 0.115 1.129 0.224-0.014 0.183-0.024 0.37-0.031 0.56-0.007 0.183-0.010 0.366-0.010 0.549 0 0.441 0.010 0.885 0.031 1.333-0.305-0.115-0.624-0.197-0.956-0.244-0.332-0.054-0.661-0.081-0.987-0.081-0.068 0-0.166 0.007-0.295 0.020-0.129 0.007-0.275 0.020-0.438 0.041-0.163 0.014-0.332 0.034-0.509 0.061-0.17 0.027-0.329 0.061-0.478 0.102s-0.282 0.088-0.397 0.143c-0.108 0.054-0.18 0.112-0.214 0.173-0.027 0.054-0.051 0.132-0.071 0.234-0.014 0.095-0.027 0.197-0.041 0.305-0.007 0.108-0.014 0.214-0.020 0.315 0 0.102 0 0.183 0 0.244s0.007 0.183 0.020 0.366 0.031 0.38 0.051 0.59c0.020 0.203 0.044 0.39 0.071 0.56 0.034 0.17 0.068 0.268 0.102 0.295 0.034 0.020 0.088 0.034 0.163 0.041 0.081 0 0.136 0 0.163 0 0.332 0 0.688-0.017 1.068-0.051s0.763-0.078 1.15-0.132c0.393-0.061 0.78-0.122 1.16-0.183 0.38-0.068 0.733-0.132 1.058-0.193zM44.689 17.682l-0.010 1.587c-0.312 0.061-0.621 0.119-0.926 0.173s-0.614 0.102-0.926 0.142c-0.326 0.041-0.651 0.078-0.977 0.112s-0.651 0.051-0.977 0.051c-0.095 0-0.234-0.003-0.417-0.010s-0.373-0.020-0.57-0.041c-0.197-0.020-0.383-0.044-0.56-0.071-0.176-0.034-0.305-0.075-0.387-0.122-0.075-0.047-0.146-0.102-0.214-0.163-0.068-0.068-0.129-0.136-0.183-0.204-0.142-0.176-0.261-0.37-0.356-0.58s-0.17-0.427-0.224-0.651c-0.054-0.224-0.095-0.451-0.122-0.682-0.020-0.231-0.031-0.458-0.031-0.682 0-0.271 0.014-0.553 0.041-0.844 0.034-0.292 0.085-0.58 0.153-0.865s0.156-0.56 0.264-0.824c0.115-0.264 0.254-0.509 0.417-0.733 0.047-0.061 0.108-0.136 0.183-0.224s0.149-0.153 0.224-0.193c0.183-0.102 0.387-0.187 0.611-0.254 0.231-0.068 0.468-0.119 0.712-0.153 0.244-0.041 0.485-0.068 0.722-0.081 0.244-0.020 0.468-0.030 0.671-0.030 0.387 0 0.773 0.024 1.16 0.071 0.387 0.041 0.763 0.115 1.129 0.224-0.014 0.183-0.024 0.37-0.031 0.56-0.007 0.183-0.010 0.366-0.010 0.549 0 0.441 0.010 0.885 0.031 1.333-0.305-0.115-0.624-0.197-0.956-0.244-0.332-0.054-0.661-0.081-0.987-0.081-0.068 0-0.166 0.007-0.295 0.020-0.129 0.007-0.275 0.020-0.438 0.041-0.163 0.014-0.332 0.034-0.509 0.061-0.17 0.027-0.329 0.061-0.478 0.102s-0.282 0.088-0.397 0.143c-0.109 0.054-0.18 0.112-0.214 0.173-0.027 0.054-0.051 0.132-0.071 0.234-0.014 0.095-0.027 0.197-0.041 0.305-0.007 0.108-0.014 0.214-0.020 0.315 0 0.102 0 0.183 0 0.244s0.007 0.183 0.020 0.366c0.014 0.183 0.031 0.38 0.051 0.59 0.020 0.203 0.044 0.39 0.071 0.56 0.034 0.17 0.068 0.268 0.102 0.295 0.034 0.020 0.088 0.034 0.163 0.041 0.081 0 0.136 0 0.163 0 0.332 0 0.689-0.017 1.068-0.051s0.763-0.078 1.15-0.132c0.393-0.061 0.78-0.122 1.16-0.183 0.38-0.068 0.733-0.132 1.058-0.193zM51.465 13.897c-0.665 0.034-1.326 0.071-1.984 0.112-0.651 0.034-1.309 0.078-1.974 0.132l-0.020 0.804 2.625-0.153c0.034 0.231 0.058 0.458 0.071 0.682 0.020 0.224 0.031 0.451 0.031 0.682 0 0.095-0.003 0.193-0.010 0.295 0 0.102 0 0.2 0 0.295l-2.442 0.437 0.153 1.262c0.516-0.034 1.028-0.081 1.536-0.142 0.516-0.068 1.034-0.126 1.557-0.173 0.047 0.339 0.095 0.682 0.142 1.028 0.047 0.339 0.115 0.671 0.204 0.997-0.963-0.007-1.92-0.007-2.869 0-0.95 0.014-1.906 0.020-2.869 0.020 0.020-0.794 0.044-1.584 0.071-2.371s0.041-1.58 0.041-2.381v-0.193c0-0.461-0.007-0.919-0.020-1.374-0.014-0.461-0.027-0.926-0.041-1.394 0.536 0.007 1.068 0.010 1.597 0.010 0.536-0.007 1.075-0.010 1.618-0.010 0.414 0 0.824 0.010 1.231 0.030 0.414 0.014 0.828 0.030 1.241 0.051l0.112 1.353zM59.839 14.985c0 0.149-0.010 0.329-0.031 0.539-0.014 0.21-0.041 0.424-0.081 0.641-0.034 0.217-0.085 0.421-0.153 0.61s-0.153 0.339-0.254 0.448c-0.041 0.047-0.173 0.095-0.397 0.142-0.217 0.041-0.482 0.085-0.794 0.132-0.305 0.041-0.634 0.081-0.987 0.122s-0.689 0.078-1.007 0.112c-0.312 0.027-0.583 0.051-0.814 0.071s-0.376 0.030-0.438 0.030l-0.081 2.116c-0.21 0.014-0.417 0.017-0.621 0.010-0.203-0.014-0.41-0.020-0.621-0.020-0.136 0-0.271 0.003-0.407 0.010s-0.271 0.017-0.407 0.030c0-0.638 0-1.268 0-1.892s-0.014-1.255-0.041-1.892c-0.020-0.577-0.041-1.15-0.061-1.72-0.014-0.57-0.027-1.143-0.041-1.719 0.699-0.047 1.401-0.105 2.106-0.173 0.712-0.075 1.421-0.112 2.126-0.112 0.122 0 0.315 0.014 0.58 0.041 0.265 0.020 0.543 0.058 0.834 0.112 0.292 0.047 0.56 0.109 0.804 0.183 0.251 0.075 0.417 0.159 0.499 0.254 0.054 0.061 0.098 0.18 0.132 0.356 0.041 0.176 0.071 0.366 0.092 0.57 0.020 0.197 0.034 0.39 0.041 0.58 0.014 0.19 0.020 0.329 0.020 0.417zM56.99 14.914c0-0.061-0.003-0.139-0.010-0.234s-0.020-0.187-0.041-0.275c-0.014-0.095-0.037-0.18-0.071-0.254-0.034-0.081-0.078-0.139-0.132-0.173-0.034-0.020-0.088-0.037-0.163-0.051s-0.153-0.024-0.234-0.030-0.159-0.010-0.234-0.010c-0.075-0.007-0.129-0.010-0.163-0.010-0.251 0-0.502 0.014-0.753 0.041s-0.505 0.061-0.763 0.102c0.020 0.203 0.031 0.404 0.031 0.6 0.007 0.197 0.010 0.393 0.010 0.59 0 0.319 0.010 0.641 0.031 0.967 0.088 0 0.241-0.003 0.458-0.010 0.217-0.014 0.444-0.031 0.682-0.051 0.237-0.027 0.461-0.061 0.672-0.102 0.21-0.047 0.353-0.109 0.427-0.183 0.122-0.115 0.193-0.254 0.214-0.417 0.027-0.17 0.041-0.336 0.041-0.499zM66.961 14.172v0.712l-1.964 0.102c-0.027 0.393-0.047 0.783-0.061 1.17s-0.020 0.773-0.020 1.16c0 0.475-0.014 0.95-0.041 1.424-0.020 0.468-0.047 0.936-0.081 1.404-0.244 0.014-0.488 0.024-0.733 0.030-0.244 0.014-0.488 0.020-0.733 0.020-0.088 0-0.176-0.003-0.265-0.010-0.081 0-0.163 0-0.244 0 0.014-0.414 0.024-0.824 0.031-1.231 0.014-0.414 0.020-0.824 0.020-1.231s-0.010-0.814-0.031-1.221c-0.020-0.414-0.044-0.828-0.071-1.241-0.197 0.007-0.397 0.014-0.6 0.020-0.197 0.007-0.397 0.010-0.6 0.010-0.115 0-0.231 0-0.346 0-0.109 0-0.22-0.003-0.336-0.010-0.020-0.502-0.034-1-0.041-1.496s-0.014-0.99-0.020-1.485c1.017 0.020 2.028 0.051 3.032 0.092 1.004 0.034 2.011 0.064 3.022 0.092 0.027 0.292 0.047 0.577 0.061 0.855 0.014 0.271 0.020 0.549 0.020 0.834zM78.763 17.682l-0.010 1.587c-0.312 0.061-0.621 0.119-0.926 0.173s-0.614 0.102-0.926 0.142c-0.326 0.041-0.651 0.078-0.977 0.112s-0.651 0.051-0.976 0.051c-0.095 0-0.234-0.003-0.418-0.010s-0.373-0.020-0.569-0.041c-0.197-0.020-0.383-0.044-0.56-0.071-0.176-0.034-0.305-0.075-0.387-0.122-0.075-0.047-0.146-0.102-0.214-0.163-0.068-0.068-0.129-0.136-0.183-0.204-0.142-0.176-0.261-0.37-0.356-0.58s-0.17-0.427-0.224-0.651c-0.054-0.224-0.095-0.451-0.122-0.682-0.020-0.231-0.031-0.458-0.031-0.682 0-0.271 0.014-0.553 0.041-0.844 0.034-0.292 0.085-0.58 0.153-0.865s0.156-0.56 0.264-0.824c0.115-0.264 0.254-0.509 0.417-0.733 0.047-0.061 0.109-0.136 0.183-0.224s0.149-0.153 0.224-0.193c0.183-0.102 0.387-0.187 0.61-0.254 0.231-0.068 0.468-0.119 0.712-0.153 0.244-0.041 0.484-0.068 0.722-0.081 0.245-0.020 0.468-0.030 0.672-0.030 0.386 0 0.773 0.024 1.159 0.071 0.387 0.041 0.764 0.115 1.13 0.224-0.013 0.183-0.024 0.37-0.031 0.56-0.007 0.183-0.010 0.366-0.010 0.549 0 0.441 0.010 0.885 0.031 1.333-0.305-0.115-0.624-0.197-0.956-0.244-0.333-0.054-0.662-0.081-0.987-0.081-0.068 0-0.166 0.007-0.295 0.020-0.129 0.007-0.275 0.020-0.437 0.041-0.163 0.014-0.333 0.034-0.509 0.061-0.17 0.027-0.329 0.061-0.478 0.102s-0.281 0.088-0.397 0.143c-0.109 0.054-0.18 0.112-0.214 0.173-0.027 0.054-0.051 0.132-0.071 0.234-0.014 0.095-0.027 0.197-0.041 0.305-0.007 0.108-0.014 0.214-0.020 0.315 0 0.102 0 0.183 0 0.244s0.007 0.183 0.020 0.366c0.014 0.183 0.031 0.38 0.051 0.59 0.020 0.203 0.044 0.39 0.071 0.56 0.034 0.17 0.068 0.268 0.102 0.295 0.034 0.020 0.088 0.034 0.163 0.041 0.081 0 0.136 0 0.163 0 0.333 0 0.688-0.017 1.068-0.051s0.764-0.078 1.15-0.132c0.394-0.061 0.781-0.122 1.16-0.183 0.38-0.068 0.732-0.132 1.058-0.193zM88.174 15.749c0 0.088 0 0.176 0 0.265 0 0.081-0.003 0.163-0.010 0.244-0.007 0.068-0.017 0.187-0.031 0.356-0.007 0.17-0.021 0.366-0.041 0.59-0.013 0.217-0.034 0.448-0.061 0.692-0.020 0.244-0.048 0.471-0.081 0.682-0.028 0.203-0.058 0.38-0.092 0.529s-0.068 0.241-0.102 0.275c-0.204 0.203-0.448 0.356-0.733 0.458-0.278 0.095-0.569 0.159-0.874 0.193s-0.611 0.047-0.916 0.041c-0.305-0.007-0.59-0.010-0.854-0.010-0.089 0-0.237 0-0.448 0-0.21-0.007-0.451-0.014-0.723-0.020-0.264-0.007-0.543-0.017-0.834-0.030-0.292-0.020-0.566-0.044-0.824-0.071-0.251-0.034-0.471-0.071-0.662-0.112-0.183-0.047-0.298-0.105-0.346-0.173-0.054-0.075-0.101-0.156-0.142-0.244s-0.078-0.173-0.112-0.254c-0.089-0.224-0.17-0.461-0.244-0.712-0.075-0.258-0.139-0.519-0.194-0.783-0.048-0.271-0.089-0.539-0.122-0.804-0.028-0.264-0.041-0.515-0.041-0.753 0-0.129 0.010-0.295 0.031-0.499 0.020-0.21 0.048-0.434 0.081-0.671 0.034-0.244 0.075-0.492 0.122-0.743s0.099-0.485 0.153-0.702c0.061-0.217 0.125-0.404 0.193-0.56 0.068-0.163 0.143-0.271 0.224-0.326 0.068-0.047 0.194-0.092 0.377-0.132s0.397-0.075 0.641-0.102c0.244-0.034 0.505-0.061 0.784-0.081 0.278-0.027 0.543-0.047 0.793-0.061 0.252-0.020 0.478-0.034 0.682-0.041s0.353-0.010 0.448-0.010c0.129 0 0.302 0.007 0.519 0.020 0.224 0.014 0.465 0.037 0.723 0.071 0.257 0.027 0.519 0.064 0.784 0.112 0.264 0.041 0.508 0.092 0.732 0.153 0.231 0.061 0.427 0.129 0.59 0.203s0.265 0.156 0.305 0.244c0.034 0.075 0.065 0.183 0.092 0.326 0.034 0.136 0.061 0.292 0.082 0.468s0.037 0.363 0.051 0.56c0.020 0.197 0.034 0.387 0.041 0.57 0.013 0.176 0.024 0.339 0.031 0.488s0.010 0.268 0.010 0.356zM86.353 16.084c0-0.136-0.007-0.278-0.020-0.427-0.013-0.156-0.058-0.292-0.132-0.407-0.054-0.081-0.187-0.146-0.397-0.193-0.204-0.047-0.431-0.081-0.682-0.102-0.244-0.020-0.481-0.030-0.712-0.030-0.231-0.007-0.394-0.010-0.488-0.010-0.075 0-0.207 0.007-0.397 0.020-0.183 0.014-0.38 0.037-0.59 0.071-0.203 0.027-0.393 0.064-0.569 0.112-0.176 0.041-0.285 0.092-0.326 0.153-0.040 0.047-0.074 0.139-0.101 0.275-0.021 0.129-0.041 0.271-0.062 0.427-0.013 0.149-0.023 0.295-0.031 0.438-0.007 0.136-0.010 0.234-0.010 0.295 0 0.054 0 0.136 0 0.244 0.007 0.108 0.017 0.22 0.031 0.336s0.027 0.224 0.040 0.326c0.021 0.102 0.048 0.176 0.082 0.224 0.020 0.034 0.081 0.064 0.183 0.092s0.224 0.054 0.366 0.081c0.15 0.020 0.305 0.037 0.468 0.051s0.319 0.027 0.468 0.041c0.156 0.007 0.292 0.014 0.407 0.020 0.122 0 0.207 0 0.254 0 0.081 0 0.22-0.007 0.417-0.020 0.204-0.014 0.414-0.034 0.631-0.061 0.224-0.034 0.427-0.071 0.61-0.112 0.19-0.047 0.312-0.102 0.366-0.163 0.041-0.047 0.075-0.146 0.102-0.295 0.028-0.156 0.048-0.322 0.061-0.499 0.013-0.183 0.020-0.356 0.020-0.519 0.007-0.17 0.010-0.292 0.010-0.366zM97.901 15.749c0 0.088 0 0.176 0 0.265 0 0.081-0.004 0.163-0.010 0.244-0.007 0.068-0.017 0.187-0.031 0.356-0.007 0.17-0.020 0.366-0.041 0.59-0.013 0.217-0.034 0.448-0.061 0.692-0.020 0.244-0.048 0.471-0.081 0.682-0.028 0.203-0.058 0.38-0.092 0.529s-0.068 0.241-0.102 0.275c-0.203 0.203-0.447 0.356-0.732 0.458-0.278 0.095-0.57 0.159-0.875 0.193s-0.61 0.047-0.915 0.041c-0.306-0.007-0.59-0.010-0.855-0.010-0.088 0-0.237 0-0.447 0-0.211-0.007-0.452-0.014-0.723-0.020-0.265-0.007-0.543-0.017-0.834-0.030-0.292-0.020-0.566-0.044-0.825-0.071-0.251-0.034-0.471-0.071-0.661-0.112-0.183-0.047-0.298-0.105-0.346-0.173-0.054-0.075-0.102-0.156-0.143-0.244s-0.077-0.173-0.112-0.254c-0.089-0.224-0.17-0.461-0.244-0.712-0.074-0.258-0.139-0.519-0.194-0.783-0.048-0.271-0.088-0.539-0.122-0.804-0.027-0.264-0.041-0.515-0.041-0.753 0-0.129 0.010-0.295 0.031-0.499 0.021-0.21 0.048-0.434 0.082-0.671 0.034-0.244 0.074-0.492 0.122-0.743s0.098-0.485 0.153-0.702c0.061-0.217 0.125-0.404 0.194-0.56 0.068-0.163 0.142-0.271 0.223-0.326 0.068-0.047 0.194-0.092 0.377-0.132s0.397-0.075 0.641-0.102c0.244-0.034 0.505-0.061 0.783-0.081 0.278-0.027 0.543-0.047 0.794-0.061 0.251-0.020 0.478-0.034 0.682-0.041s0.353-0.010 0.447-0.010c0.129 0 0.302 0.007 0.519 0.020 0.223 0.014 0.464 0.037 0.722 0.071 0.258 0.027 0.519 0.064 0.784 0.112 0.264 0.041 0.509 0.092 0.732 0.153 0.231 0.061 0.428 0.129 0.59 0.203s0.265 0.156 0.306 0.244c0.034 0.075 0.064 0.183 0.092 0.326 0.034 0.136 0.061 0.292 0.081 0.468s0.037 0.363 0.051 0.56c0.021 0.197 0.034 0.387 0.041 0.57 0.013 0.176 0.024 0.339 0.031 0.488s0.010 0.268 0.010 0.356zM96.080 16.084c0-0.136-0.007-0.278-0.020-0.427-0.013-0.156-0.057-0.292-0.132-0.407-0.054-0.081-0.186-0.146-0.397-0.193-0.203-0.047-0.431-0.081-0.682-0.102-0.244-0.020-0.481-0.030-0.712-0.030-0.231-0.007-0.394-0.010-0.488-0.010-0.074 0-0.207 0.007-0.397 0.020-0.183 0.014-0.38 0.037-0.59 0.071-0.204 0.027-0.394 0.064-0.57 0.112-0.176 0.041-0.285 0.092-0.325 0.153-0.041 0.047-0.075 0.139-0.102 0.275-0.021 0.129-0.041 0.271-0.061 0.427-0.013 0.149-0.024 0.295-0.031 0.438-0.007 0.136-0.010 0.234-0.010 0.295 0 0.054 0 0.136 0 0.244 0.007 0.108 0.017 0.22 0.031 0.336s0.028 0.224 0.041 0.326c0.020 0.102 0.048 0.176 0.081 0.224 0.021 0.034 0.082 0.064 0.183 0.092s0.224 0.054 0.366 0.081c0.15 0.020 0.306 0.037 0.468 0.051s0.319 0.027 0.468 0.041c0.156 0.007 0.292 0.014 0.407 0.020 0.122 0 0.207 0 0.254 0 0.081 0 0.22-0.007 0.418-0.020 0.203-0.014 0.413-0.034 0.63-0.061 0.224-0.034 0.427-0.071 0.61-0.112 0.191-0.047 0.313-0.102 0.367-0.163 0.040-0.047 0.074-0.146 0.101-0.295 0.028-0.156 0.048-0.322 0.061-0.499 0.014-0.183 0.021-0.356 0.021-0.519 0.007-0.17 0.010-0.292 0.010-0.366zM107.048 20.042c-0.326 0.075-0.651 0.142-0.977 0.204-0.319 0.068-0.644 0.129-0.976 0.183-0.407-0.617-0.81-1.224-1.211-1.821-0.394-0.604-0.804-1.204-1.232-1.801l-1.088 1.058-0.102 2.259c-0.156-0.007-0.312-0.014-0.468-0.020-0.15 0-0.298 0-0.448 0-0.142 0-0.281 0.003-0.417 0.010s-0.272 0.020-0.407 0.041c-0.081-0.624-0.159-1.245-0.234-1.862-0.068-0.624-0.129-1.252-0.184-1.882s-0.098-1.258-0.132-1.882c-0.028-0.631-0.054-1.262-0.082-1.892 0.509 0.014 1.011 0.024 1.506 0.030 0.502 0 1.007 0.007 1.516 0.020l-0.061 2.36c0.366-0.38 0.712-0.767 1.037-1.16s0.662-0.794 1.008-1.201c0.325-0.020 0.654-0.041 0.987-0.061 0.333-0.027 0.662-0.054 0.987-0.081l-0.040 0.753-2.157 2.249c0.516 0.766 1.034 1.519 1.557 2.259 0.529 0.739 1.068 1.485 1.618 2.238zM111.311 12.625c-0.034 0.414-0.048 0.828-0.040 1.241 0.007 0.407 0.003 0.814-0.010 1.221l-1.13-0.041c-0.007 0.237-0.013 0.471-0.020 0.702 0 0.231 0 0.465 0 0.702 0 0.285 0 0.566 0 0.844 0.007 0.271 0.013 0.549 0.020 0.834l1.038 0.020c-0.013 0.197-0.021 0.397-0.021 0.6s0 0.407 0 0.61c0 0.17 0.004 0.339 0.010 0.509 0.013 0.17 0.037 0.336 0.071 0.499l-3.652 0.061c0-0.332-0.004-0.658-0.010-0.977-0.007-0.326-0.020-0.655-0.041-0.987l0.662-0.010c-0.034-0.638-0.074-1.268-0.122-1.892-0.041-0.624-0.085-1.252-0.132-1.882l-0.967-0.122c-0.013-0.285-0.027-0.566-0.040-0.845-0.007-0.285-0.017-0.57-0.031-0.855 0.739-0.027 1.471-0.058 2.198-0.092 0.732-0.041 1.472-0.088 2.218-0.142zM118.403 13.897c-0.665 0.034-1.326 0.071-1.984 0.112-0.652 0.034-1.31 0.078-1.974 0.132l-0.020 0.804 2.625-0.153c0.034 0.231 0.058 0.458 0.071 0.682 0.020 0.224 0.031 0.451 0.031 0.682 0 0.095-0.004 0.193-0.010 0.295 0 0.102 0 0.2 0 0.295l-2.442 0.437 0.153 1.262c0.516-0.034 1.028-0.081 1.536-0.142 0.516-0.068 1.034-0.126 1.557-0.173 0.048 0.339 0.095 0.682 0.143 1.028 0.047 0.339 0.115 0.671 0.203 0.997-0.963-0.007-1.919-0.007-2.869 0-0.95 0.014-1.907 0.020-2.87 0.020 0.021-0.794 0.044-1.584 0.071-2.371s0.041-1.58 0.041-2.381v-0.193c0-0.461-0.007-0.919-0.021-1.374-0.013-0.461-0.027-0.926-0.040-1.394 0.536 0.007 1.068 0.010 1.597 0.010 0.536-0.007 1.075-0.010 1.618-0.010 0.414 0 0.824 0.010 1.231 0.030 0.414 0.014 0.828 0.030 1.241 0.051l0.112 1.353zM126.99 18.302c0 0.326-0.078 0.59-0.234 0.794-0.156 0.197-0.377 0.356-0.662 0.478-0.237 0.102-0.536 0.183-0.895 0.244-0.359 0.054-0.732 0.095-1.119 0.122-0.386 0.020-0.766 0.034-1.139 0.041s-0.685 0.010-0.936 0.010c-0.427 0-0.851-0.007-1.272-0.020-0.414-0.014-0.834-0.034-1.261-0.061 0.020-0.692 0-1.377-0.061-2.055 0.509 0.014 1.014 0.027 1.516 0.041 0.509 0.007 1.017 0.017 1.526 0.030 0.196 0.007 0.394 0.014 0.59 0.020 0.203 0.007 0.407 0.010 0.61 0.010 0.034 0 0.085 0 0.153 0s0.139-0.003 0.214-0.010c0.075-0.007 0.143-0.017 0.204-0.030 0.068-0.014 0.118-0.034 0.153-0.061 0.027-0.027 0.044-0.064 0.051-0.112 0.007-0.054 0.010-0.102 0.010-0.142 0-0.075-0.010-0.163-0.031-0.265-0.020-0.108-0.051-0.197-0.092-0.264-0.007-0.007-0.031-0.014-0.071-0.020-0.034-0.007-0.074-0.010-0.122-0.010-0.048-0.007-0.092-0.010-0.132-0.010-0.040-0.007-0.064-0.010-0.071-0.010-0.435-0.034-0.868-0.058-1.302-0.071-0.428-0.014-0.858-0.037-1.293-0.071-0.196-0.020-0.4-0.041-0.61-0.061-0.203-0.020-0.394-0.058-0.57-0.112-0.169-0.047-0.315-0.153-0.437-0.315-0.115-0.17-0.211-0.359-0.285-0.57-0.068-0.217-0.119-0.434-0.153-0.651-0.028-0.217-0.041-0.4-0.041-0.549 0-0.244 0.024-0.475 0.071-0.692 0.047-0.224 0.122-0.431 0.223-0.621 0.109-0.19 0.245-0.356 0.407-0.499 0.163-0.149 0.363-0.271 0.601-0.366 0.407-0.156 0.841-0.265 1.302-0.326 0.468-0.061 0.915-0.092 1.343-0.092 0.502 0 0.996 0.030 1.485 0.092s0.976 0.139 1.465 0.234c-0.007 0.197-0.013 0.393-0.020 0.59 0 0.19 0 0.383 0 0.58s0.010 0.397 0.031 0.6c0.020 0.197 0.041 0.393 0.061 0.59-0.644 0.014-1.289 0.027-1.933 0.041-0.638 0.007-1.282 0.024-1.933 0.051-0.082 0-0.194 0.003-0.336 0.010-0.136 0.007-0.268 0.017-0.397 0.030-0.129 0.007-0.24 0.014-0.336 0.020s-0.142 0.010-0.142 0.010c-0.034 0.075-0.054 0.153-0.061 0.234-0.007 0.075-0.010 0.153-0.010 0.234 0 0.041 0 0.092 0 0.153 0.007 0.061 0.024 0.108 0.051 0.142 0.007 0.007 0.064 0.017 0.173 0.030s0.227 0.027 0.356 0.041c0.135 0.014 0.26 0.027 0.376 0.041 0.122 0.014 0.197 0.020 0.224 0.020 0.224 0.020 0.485 0.044 0.784 0.071 0.305 0.027 0.614 0.058 0.926 0.092 0.319 0.034 0.624 0.078 0.915 0.132 0.292 0.047 0.546 0.105 0.764 0.173 0.196 0.068 0.377 0.176 0.539 0.326 0.17 0.142 0.316 0.312 0.438 0.509 0.122 0.19 0.217 0.393 0.285 0.61 0.074 0.21 0.112 0.417 0.112 0.621z"></path>
    </symbol>
  </defs>
</svg>