<svg aria-hidden="true" style="position: absolute; width: 0; height: 0; overflow: hidden;" version="1.1" xmlns="http://www.w3.org/2000/svg" xmlns:xlink="http://www.w3.org/1999/xlink">
  <defs>
    <symbol id="reddit" viewBox="0 0 38 32">
      <path d="M24.532 20.379c-1.343 0-2.427-1.084-2.427-2.426 0-1.344 1.084-2.426 2.427-2.426 1.341 0 2.426 1.083 2.426 2.426 0 1.342-1.084 2.426-2.426 2.426zM25.203 24.868c-0.074 0.113-1.91 2.79-6.334 2.79s-6.26-2.677-6.334-2.79c-0.251-0.371-0.153-0.874 0.219-1.116 0.373-0.251 0.874-0.146 1.124 0.217 0.057 0.089 1.472 2.072 4.991 2.072 3.517 0 4.934-1.99 4.989-2.072 0.251-0.364 0.754-0.461 1.126-0.21 0.365 0.243 0.46 0.744 0.219 1.108zM10.781 17.953c0-1.344 1.084-2.426 2.426-2.426 1.343 0 2.427 1.083 2.427 2.426 0 1.342-1.084 2.426-2.427 2.426-1.341 0-2.426-1.084-2.426-2.426zM36.665 14.717c0-2.233-1.811-4.045-4.045-4.045-1.075 0-2.047 0.421-2.774 1.101-2.427-1.901-5.695-3.163-9.343-3.462l2.072-6.204 5.216 2.614c-0.009 0.097-0.023 0.186-0.023 0.29 0 1.344 1.084 2.428 2.425 2.428 1.336 0 2.427-1.084 2.427-2.428 0-1.342-1.092-2.426-2.427-2.426-0.655 0-1.244 0.26-1.68 0.68l-5.268-2.629c-0.395-0.202-0.865-0.227-1.286-0.056-0.42 0.169-0.752 0.509-0.898 0.945l-2.241 6.722c-4.287 0.009-8.153 1.359-10.927 3.527-0.731-0.68-1.7-1.101-2.776-1.101-2.233 0-4.045 1.812-4.045 4.045 0 1.706 1.059 3.171 2.557 3.761-0.090 0.494-0.129 0.986-0.129 1.496 0 6.479 6.882 11.729 15.368 11.729 8.485 0 15.369-5.25 15.369-11.729 0-0.51-0.039-1.003-0.129-1.496 1.497-0.59 2.557-2.055 2.557-3.761z"></path>
    </symbol>
    <symbol id="instagram" viewBox="0 0 31 32">
      <path d="M27.895 23.113c0 2.871-2.329 5.201-5.199 5.201h-14.56c-2.87 0-5.201-2.329-5.201-5.201v-14.559c0-2.871 2.331-5.201 5.201-5.201h14.56c2.87 0 5.199 2.329 5.199 5.201v14.559zM23.216 0.754h-15.6c-4.019 0-7.28 3.261-7.28 7.28v15.599c0 4.019 3.261 7.28 7.28 7.28h15.6c4.019 0 7.279-3.261 7.279-7.28v-15.599c0-4.019-3.259-7.28-7.279-7.28z"></path>
      <path d="M15.428 21.035c-2.864 0-5.201-2.335-5.201-5.201 0-2.864 2.336-5.199 5.201-5.199 2.866 0 5.201 2.335 5.201 5.199 0 2.866-2.335 5.201-5.201 5.201zM15.428 8.035c-4.306 0-7.798 3.495-7.798 7.8s3.492 7.8 7.798 7.8c4.305 0 7.8-3.495 7.8-7.8s-3.495-7.8-7.8-7.8z"></path>
      <path d="M23.749 9.077c-0.86 0-1.559-0.7-1.559-1.56s0.699-1.56 1.559-1.56c0.86 0 1.56 0.7 1.56 1.56s-0.7 1.56-1.56 1.56z"></path>
    </symbol>
    <symbol id="tiktok" viewBox="0 0 27 32">
      <path d="M18.988 23.19v-13.674c0 0 1.542 2.57 7.116 2.727 0.297 0.010 0.542-0.235 0.542-0.532v-3.866c0-0.288-0.229-0.515-0.517-0.532-4.323-0.245-6.376-3.559-6.578-6.6-0.019-0.282-0.265-0.496-0.547-0.496h-4.407c-0.294 0-0.532 0.238-0.532 0.532v21.738c0 2.361-1.805 4.416-4.163 4.527-2.696 0.128-4.888-2.186-4.555-4.92 0.235-1.932 1.786-3.514 3.714-3.783 0.383-0.053 0.758-0.057 1.12-0.017 0.32 0.036 0.603-0.203 0.603-0.525v-3.874c0-0.276-0.21-0.514-0.485-0.531-0.553-0.036-1.12-0.024-1.695 0.042-4.252 0.482-7.683 3.923-8.154 8.175-0.622 5.612 3.755 10.361 9.24 10.361 5.136 0 9.299-4.163 9.299-9.299z"></path>
    </symbol>
    <symbol id="twitter" viewBox="0 0 38 32">
      <path d="M7.796 3.686h4.394l17.751 24.796h-4.394l-17.751-24.796zM23.198 13.328l12.135-12.979h-4.609l-9.525 10.188-7.294-10.188h-12.604l12.76 17.822-12.76 13.648h4.609l10.15-10.857 7.772 10.857h12.604l-13.238-18.491z"></path>
    </symbol>
    <symbol id="facebook" viewBox="0 0 18 32">
      <path d="M17.598 14.223l-0.396 3.182c-0.067 0.532-0.517 0.931-1.051 0.931h-5.155v13.308c-0.544 0.049-1.095 0.074-1.652 0.074-1.245 0-2.461-0.125-3.636-0.361v-13.021h-3.965c-0.364 0-0.661-0.298-0.661-0.664v-3.982c0-0.365 0.297-0.664 0.661-0.664h3.965v-5.974c0-3.665 2.959-6.636 6.61-6.636h4.626c0.364 0 0.661 0.298 0.661 0.664v3.982c0 0.365-0.297 0.664-0.661 0.664h-3.305c-1.459 0-2.643 1.189-2.643 2.656v4.645h5.551c0.637 0 1.13 0.561 1.051 1.195z"></path>
    </symbol>
    <symbol id="close" viewBox="0 0 32 32">
      <path d="M7.294 7.293c0.188-0.187 0.442-0.292 0.707-0.292s0.519 0.105 0.707 0.292l16 16c0.098 0.092 0.177 0.202 0.232 0.325s0.084 0.255 0.086 0.389c0.002 0.134-0.022 0.268-0.073 0.392s-0.125 0.238-0.22 0.333-0.208 0.17-0.333 0.22c-0.125 0.050-0.258 0.075-0.392 0.073s-0.267-0.032-0.389-0.086c-0.123-0.055-0.233-0.134-0.325-0.232l-16-16c-0.187-0.187-0.292-0.442-0.292-0.707s0.105-0.519 0.292-0.707z"></path>
      <path d="M24.707 7.293c0.187 0.188 0.292 0.442 0.292 0.707s-0.105 0.519-0.292 0.707l-16 16c-0.19 0.177-0.44 0.273-0.699 0.268s-0.506-0.11-0.689-0.293-0.288-0.43-0.293-0.689c-0.005-0.259 0.092-0.51 0.268-0.699l16-16c0.188-0.187 0.442-0.292 0.707-0.292s0.519 0.105 0.707 0.292z"></path>
    </symbol>
    <symbol id="burger" viewBox="0 0 32 32">
      <path d="M5.333 8c0-0.354 0.14-0.693 0.391-0.943s0.589-0.391 0.943-0.391h18.667c0.354 0 0.693 0.14 0.943 0.391s0.391 0.589 0.391 0.943-0.14 0.693-0.391 0.943c-0.25 0.25-0.589 0.391-0.943 0.391h-18.667c-0.354 0-0.693-0.14-0.943-0.391s-0.391-0.589-0.391-0.943zM5.333 16c0-0.354 0.14-0.693 0.391-0.943s0.589-0.391 0.943-0.391h18.667c0.354 0 0.693 0.14 0.943 0.391s0.391 0.589 0.391 0.943-0.14 0.693-0.391 0.943c-0.25 0.25-0.589 0.391-0.943 0.391h-18.667c-0.354 0-0.693-0.14-0.943-0.391s-0.391-0.589-0.391-0.943zM6.666 22.667c-0.354 0-0.693 0.14-0.943 0.391s-0.391 0.589-0.391 0.943c0 0.354 0.14 0.693 0.391 0.943s0.589 0.391 0.943 0.391h18.667c0.354 0 0.693-0.14 0.943-0.391s0.391-0.589 0.391-0.943-0.14-0.693-0.391-0.943c-0.25-0.25-0.589-0.391-0.943-0.391h-18.667z"></path>
    </symbol>
    <symbol id="bat" viewBox="0 0 83 32">
      <path d="M72.733 11.269c3.279 0.582 10.059 6.21 10.059 6.21s-2.196-3.39-5.877-6.228c-3.681-2.833-12.176-7.575-16.202-8.312-4.028-0.738-1.919-0.241-2.768-0.962-0.852-0.722-0.978-1.427-0.978-1.427s0 0-0.153 0.756c-0.153 0.754 0.976 1.425 0.988 2.297 0.012 0.87-1.841 10.652-2.439 11.343-0.599 0.687-5.876 4.243-6.296 4.319-0.419 0.073-2.415-0.589-2.705-1.408-0.291-0.82-1.437-0.764-1.437-0.764l0.666-2.736c0 0 1.971-1.078 2.494-3.788 0.525-2.711 0.642-4.479 0.642-4.479s-1.615 1.452-2.252 2.729c-0.637 1.277-2.089 2.844-2.089 2.844l-1.375-0.033 0.003-0.061-1.355 0.030-0.892-0.018 0.001 0.040-1.423 0.033c0 0-1.474-1.567-2.124-2.843-0.649-1.28-2.292-2.729-2.292-2.729s0.123 1.768 0.668 4.479c0.541 2.711 2.539 3.788 2.539 3.788l0.684 2.738c0 0-1.159-0.058-1.451 0.763s-2.308 1.487-2.734 1.412c-0.424-0.074-5.782-3.63-6.391-4.318-0.61-0.689-2.523-10.475-2.514-11.346 0.007-0.871 1.15-1.543 0.991-2.298-0.157-0.755-0.157-0.755-0.157-0.755s-0.125 0.705-0.984 1.427c-0.859 0.722 1.276 0.223-2.802 0.964-4.075 0.739-12.66 5.489-16.378 8.328-3.717 2.837-5.928 6.232-5.928 6.232s6.845-5.636 10.163-6.218c3.315-0.582 5.108 4.965 3.974 7.24-1.136 2.272-1.544 2.928-1.544 2.928s2.993-3.691 6.601-2.624c3.608 1.069 4.090 7.405 4.215 6.699 0.125-0.707 1.535-4.53 4.678-4.125 3.14 0.405 4.648 5.904 4.648 5.904s1.337-2.25 2.469-3.203c0.857-0.722 1.458-1.634 2.7-0.399 1.238 1.232 1.715 1.029 2.57 2.769l0.060 4.995c0 0 0.401-1.284 0.908-2.673 0.519 1.387 0.927 2.67 0.927 2.67l0.042-5.040c0.805-1.67 0.67-1.365 1.874-2.586 1.222-1.233 1.602-0.72 2.987-0.239 1.384 0.48 2.406 2.893 2.406 2.893s1.821-4.685 4.923-5.093c3.099-0.405 4.505 3.417 4.631 4.12 0.126 0.706 0.579-5.628 4.138-6.698 3.561-1.071 6.528 2.618 6.528 2.618s-0.405-0.654-1.534-2.927c-1.127-2.272 0.621-7.818 3.896-7.239z"></path>
    </symbol>
    <symbol id="scull" viewBox="0 0 177 32">
      <path d="M94.003 18.429c-1.374 0-2.487-1.13-2.487-2.524 0-1.395 1.113-2.526 2.487-2.526s2.488 1.13 2.488 2.526c0 1.394-1.113 2.524-2.488 2.524zM91.864 24.708c-0.263 0.644-1.063 0.849-1.594 0.408l-1.042-1.784-1.084 1.991c-0.54 0.413-1.333 0.194-1.575-0.447-0.38-1.014-0.292-2.174 0.295-3.138l1.521-2.5c0.385-0.635 1.287-0.654 1.699-0.037l1.439 2.153c0.661 0.988 0.789 2.248 0.341 3.354zM83.521 20.232c-2.453 0-4.441-2.019-4.441-4.508 0-2.492 1.988-4.51 4.441-4.51s4.441 2.018 4.441 4.51c0 2.489-1.988 4.508-4.441 4.508zM88.108 0.038c-6.974 0.196-12.777 5.83-13.257 12.895-0.285 4.183 1.259 8.005 3.899 10.727 1.825 1.882 2.818 4.436 2.818 7.078v0.676h1.954v-2.734c0-0.328 0.22-0.631 0.539-0.685 0.407-0.067 0.757 0.25 0.757 0.649v2.77h1.943v-2.734c0-0.328 0.221-0.631 0.54-0.685 0.406-0.065 0.757 0.25 0.757 0.649v2.77h1.943v-2.734c0-0.328 0.221-0.631 0.541-0.685 0.405-0.067 0.756 0.25 0.756 0.649v2.77h1.943v-2.734c0-0.328 0.22-0.631 0.539-0.685 0.407-0.067 0.757 0.25 0.757 0.649v2.77h1.423v-1.248c0-2.507 0.874-4.959 2.558-6.796 2.27-2.479 3.66-5.799 3.66-9.45 0-7.801-6.337-14.099-14.068-13.882z"></path>
      <path d="M63.184 20.288c0 0-38.204 0.401-51.603 0.401-3.152 0-9.061-8.798-11.029-5.599-1.97 3.199 1.968 6.797 1.968 6.797s-4.648 6.169-0.788 7.998c5.909 2.799 4.727-2.398 7.879-3.599 3.152-1.2 46.482-1.6 50.817-1.6 2.466 0 1.334 1.122 2.466 2.046 1.518 1.241 8.563 6.825 8.563 1.553 0-3.599-2.758-3.999-2.758-5.197 0-1.201 3.151-2.399 0.788-5.199s-3.151-0.801-6.303 2.398z"></path>
      <path d="M113.964 20.288c0 0 38.036 0.401 51.377 0.401 3.137 0 9.020-8.798 10.98-5.599 1.961 3.199-1.96 6.797-1.96 6.797s4.628 6.169 0.784 7.998c-5.883 2.799-4.707-2.398-7.844-3.599-3.137-1.2-46.276-1.6-50.592-1.6-2.455 0-1.328 1.122-2.455 2.046-1.512 1.241-8.524 6.825-8.524 1.553 0-3.599 2.745-3.999 2.745-5.197 0-1.201-3.139-2.399-0.785-5.199s3.137-0.801 6.275 2.398z"></path>
    </symbol>
  </defs>
</svg>